<svg width="20" height="20" viewBox="0 0 20 20" fill="none" xmlns="http://www.w3.org/2000/svg">
<path d="M0.8125 8.12337C0.597012 8.12337 0.390349 8.03777 0.237976 7.8854C0.0856026 7.73303 0 7.52636 0 7.31087V0.8125C0 0.597012 0.0856026 0.390349 0.237976 0.237976C0.390349 0.0856026 0.597012 0 0.8125 0H7.3125C7.52799 0 7.73465 0.0856026 7.88702 0.237976C8.0394 0.390349 8.125 0.597012 8.125 0.8125V7.31087C8.125 7.52636 8.0394 7.73303 7.88702 7.8854C7.73465 8.03777 7.52799 8.12337 7.3125 8.12337H0.8125ZM12.1875 8.12337C11.972 8.12337 11.7653 8.03777 11.613 7.8854C11.4606 7.73303 11.375 7.52636 11.375 7.31087V0.8125C11.375 0.597012 11.4606 0.390349 11.613 0.237976C11.7653 0.0856026 11.972 0 12.1875 0H18.6859C18.9014 0 19.108 0.0856026 19.2604 0.237976C19.4128 0.390349 19.4984 0.597012 19.4984 0.8125V7.31087C19.4984 7.52636 19.4128 7.73303 19.2604 7.8854C19.108 8.03777 18.9014 8.12337 18.6859 8.12337H12.1875ZM0.8125 19.4984C0.597012 19.4984 0.390349 19.4128 0.237976 19.2604C0.0856026 19.108 0 18.9014 0 18.6859V12.1859C0 11.9704 0.0856026 11.7637 0.237976 11.6113C0.390349 11.459 0.597012 11.3734 0.8125 11.3734H7.3125C7.52799 11.3734 7.73465 11.459 7.88702 11.6113C8.0394 11.7637 8.125 11.9704 8.125 12.1859V18.6859C8.125 18.9014 8.0394 19.108 7.88702 19.2604C7.73465 19.4128 7.52799 19.4984 7.3125 19.4984H0.8125ZM12.1875 19.4984C11.972 19.4984 11.7653 19.4128 11.613 19.2604C11.4606 19.108 11.375 18.9014 11.375 18.6859V12.1859C11.375 11.9704 11.4606 11.7637 11.613 11.6113C11.7653 11.459 11.972 11.3734 12.1875 11.3734H18.6859C18.9014 11.3734 19.108 11.459 19.2604 11.6113C19.4128 11.7637 19.4984 11.9704 19.4984 12.1859V18.6859C19.4984 18.9014 19.4128 19.108 19.2604 19.2604C19.108 19.4128 18.9014 19.4984 18.6859 19.4984H12.1875Z" fill="#FF0066"/>
</svg>
