<svg width="24" height="14" viewBox="0 0 24 14" fill="none" xmlns="http://www.w3.org/2000/svg">
<path d="M20.64 0.76001H0V13.24H24V0.76001H20.64ZM23.04 10.0101C22.496 10.1565 21.9999 10.4432 21.6016 10.8416C21.2032 11.2399 20.9165 11.736 20.7701 12.28H3.22992C3.0834 11.736 2.79663 11.2401 2.39828 10.8417C1.99993 10.4434 1.50397 10.1566 0.96 10.0101V3.98993C1.50397 3.84341 1.99993 3.55664 2.39828 3.15829C2.79663 2.75994 3.0834 2.26398 3.22992 1.72001H20.7811C20.9409 2.25428 21.2309 2.74044 21.6253 3.13475C22.0196 3.52906 22.5057 3.81914 23.04 3.97889V10.0101ZM13.0157 7.98641C12.9053 7.91921 12.96 7.85729 12.48 7.80017V9.19073L12.743 9.14177C13.0992 9.01697 13.2778 8.78417 13.2778 8.44529C13.2778 8.24897 13.1899 8.09441 13.0157 7.98641ZM10.8552 5.71745C10.8552 5.93105 10.9526 6.09185 11.1466 6.19745C11.221 6.23921 11.3462 6.28577 11.5195 6.33617V5.02049C11.3886 5.04899 11.2637 5.10016 11.1504 5.17169C10.9536 5.30225 10.8552 5.48465 10.8552 5.71745ZM12 2.20001C9.61392 2.20001 7.68 4.34945 7.68 7.00001C7.68 9.65009 9.61392 11.8 12 11.8C14.3861 11.8 16.32 9.65009 16.32 7.00001C16.32 4.34945 14.3861 2.20001 12 2.20001ZM13.8499 9.71393C13.524 9.99233 12.96 10.1627 12.48 10.227V10.84H11.52V10.216C11.0189 10.1479 10.6037 10.072 10.2778 9.81521C10.0698 9.6507 9.90101 9.44193 9.78377 9.20405C9.66654 8.96618 9.60376 8.70518 9.6 8.44001H10.7942C10.8331 8.44001 10.909 8.82449 11.0222 8.96033C11.1398 9.10001 11.3069 9.11633 11.52 9.17537V7.54097C10.9358 7.40609 10.5288 7.26065 10.3027 7.10417C9.89904 6.82817 9.69744 6.39569 9.69744 5.80817C9.69744 5.27201 9.89472 4.82657 10.2898 4.47185C10.5912 4.20065 11.0021 4.03409 11.52 3.96977V3.16001H12.48V3.99521C12.96 4.06673 13.2845 4.28945 13.584 4.51169C14.0347 4.84625 14.352 5.08001 14.3736 6.04001H13.1707C13.1482 5.56001 12.9072 5.35265 12.6082 5.20097C12.5628 5.17146 12.5199 5.13822 12.48 5.10161V6.61025L12.913 6.69377C13.3733 6.80225 13.799 6.94721 14.0285 7.12817C14.3856 7.41041 14.5238 7.81793 14.5238 8.35073C14.5248 8.89793 14.2723 9.35201 13.8499 9.71393Z" fill="#FF0066"/>
</svg>
