<svg width="24" height="24" viewBox="0 0 24 24" fill="none" xmlns="http://www.w3.org/2000/svg">
<g clip-path="url(#clip0_631_2715)">
<path d="M11.1532 5.408C12.4202 3.136 13.0532 2 14.0002 2C14.9472 2 15.5802 3.136 16.8472 5.408L17.1752 5.996C17.5352 6.642 17.7152 6.965 17.9952 7.178C18.2752 7.391 18.6252 7.47 19.3252 7.628L19.9612 7.772C22.4212 8.329 23.6502 8.607 23.9432 9.548C24.2352 10.488 23.3972 11.469 21.7202 13.43L21.2862 13.937C20.8102 14.494 20.5712 14.773 20.4642 15.117C20.3572 15.462 20.3932 15.834 20.4652 16.577L20.5312 17.254C20.7842 19.871 20.9112 21.179 20.1452 21.76C19.3792 22.342 18.2272 21.811 15.9252 20.751L15.3282 20.477C14.6742 20.175 14.3472 20.025 14.0002 20.025C13.6532 20.025 13.3262 20.175 12.6712 20.477L12.0762 20.751C9.77323 21.811 8.62123 22.341 7.85624 21.761C7.08924 21.179 7.21623 19.871 7.46923 17.254L7.53523 16.578C7.60723 15.834 7.64323 15.462 7.53523 15.118C7.42923 14.773 7.19024 14.494 6.71424 13.938L6.28024 13.43C4.60324 11.47 3.76523 10.489 4.05723 9.548C4.35024 8.607 5.58024 8.328 8.04024 7.772L8.67624 7.628C9.37524 7.47 9.72424 7.391 10.0052 7.178C10.2852 6.965 10.4652 6.642 10.8252 5.996L11.1532 5.408Z" fill="#FF0066"/>
</g>
<defs>
<clipPath id="clip0_631_2715">
<rect width="24" height="24" fill="white"/>
</clipPath>
</defs>
</svg>
