<svg width="18" height="20" viewBox="0 0 18 20" fill="none" xmlns="http://www.w3.org/2000/svg">
<path fill-rule="evenodd" clip-rule="evenodd" d="M2.99961 0.400024C2.36309 0.400024 1.75264 0.652881 1.30255 1.10297C0.852466 1.55306 0.599609 2.1635 0.599609 2.80002V19.6L4.79961 17.2L8.99961 19.6L13.1996 17.2L17.3996 19.6V2.80002C17.3996 2.1635 17.1468 1.55306 16.6967 1.10297C16.2466 0.652881 15.6361 0.400024 14.9996 0.400024H2.99961ZM5.99961 4.00002C5.52222 4.00002 5.06438 4.18967 4.72682 4.52723C4.38925 4.8648 4.19961 5.32263 4.19961 5.80002C4.19961 6.27741 4.38925 6.73525 4.72682 7.07282C5.06438 7.41038 5.52222 7.60002 5.99961 7.60002C6.477 7.60002 6.93484 7.41038 7.2724 7.07282C7.60997 6.73525 7.79961 6.27741 7.79961 5.80002C7.79961 5.32263 7.60997 4.8648 7.2724 4.52723C6.93484 4.18967 6.477 4.00002 5.99961 4.00002ZM13.448 4.35162C13.223 4.12666 12.9178 4.00028 12.5996 4.00028C12.2814 4.00028 11.9762 4.12666 11.7512 4.35162L4.55121 11.5516C4.4366 11.6623 4.34518 11.7947 4.28229 11.9411C4.2194 12.0875 4.18629 12.245 4.18491 12.4043C4.18352 12.5637 4.21389 12.7217 4.27422 12.8692C4.33456 13.0166 4.42366 13.1506 4.53633 13.2633C4.64901 13.376 4.78299 13.4651 4.93046 13.5254C5.07794 13.5857 5.23596 13.6161 5.39529 13.6147C5.55463 13.6133 5.71209 13.5802 5.85849 13.5173C6.0049 13.4545 6.13731 13.363 6.24801 13.2484L13.448 6.04842C13.673 5.82339 13.7994 5.51822 13.7994 5.20002C13.7994 4.88183 13.673 4.57666 13.448 4.35162ZM11.9996 10C11.5222 10 11.0644 10.1897 10.7268 10.5272C10.3893 10.8648 10.1996 11.3226 10.1996 11.8C10.1996 12.2774 10.3893 12.7353 10.7268 13.0728C11.0644 13.4104 11.5222 13.6 11.9996 13.6C12.477 13.6 12.9348 13.4104 13.2724 13.0728C13.61 12.7353 13.7996 12.2774 13.7996 11.8C13.7996 11.3226 13.61 10.8648 13.2724 10.5272C12.9348 10.1897 12.477 10 11.9996 10Z" fill="#FF0066"/>
</svg>
