<svg width="31" height="29" viewBox="0 0 31 29" fill="none" xmlns="http://www.w3.org/2000/svg">
<path d="M15.3656 11.0476V6.90476H10.7559V4.14286H15.3656V0H18.4387V4.14286H23.0483V6.90476H18.4387V11.0476H15.3656ZM9.21933 29C8.37423 29 7.65051 28.7293 7.04818 28.188C6.44585 27.6467 6.1452 26.9967 6.14622 26.2381C6.14622 25.4786 6.44739 24.8281 7.04972 24.2868C7.65204 23.7455 8.37525 23.4753 9.21933 23.4762C10.0644 23.4762 10.7882 23.7469 11.3905 24.2882C11.9928 24.8295 12.2935 25.4795 12.2924 26.2381C12.2924 26.9976 11.9913 27.648 11.3889 28.1894C10.7866 28.7307 10.0634 29.0009 9.21933 29ZM24.5849 29C23.7398 29 23.0161 28.7293 22.4137 28.188C21.8114 27.6467 21.5107 26.9967 21.5118 26.2381C21.5118 25.4786 21.8129 24.8281 22.4153 24.2868C23.0176 23.7455 23.7408 23.4753 24.5849 23.4762C25.43 23.4762 26.1537 23.7469 26.756 24.2882C27.3584 24.8295 27.659 25.4795 27.658 26.2381C27.658 26.9976 27.3568 27.648 26.7545 28.1894C26.1522 28.7307 25.429 29.0009 24.5849 29ZM9.21933 22.0952C8.06691 22.0952 7.1834 21.6404 6.56877 20.7309C5.95415 19.8213 5.94135 18.9181 6.53036 18.0214L8.60471 14.6381L3.07311 4.14286H0V1.38095H5.03222L11.5626 13.8095H22.3569L28.311 4.14286L31 5.45476L25.0458 15.1214C24.7641 15.5817 24.3928 15.9385 23.9318 16.1917C23.4709 16.4448 22.9459 16.5714 22.3569 16.5714H10.9095L9.21933 19.3333H27.658V22.0952H9.21933Z" fill="white"/>
</svg>
