<svg width="28" height="18" viewBox="0 0 28 18" fill="none" xmlns="http://www.w3.org/2000/svg">
<path d="M16.8333 13.25H26.75M1.25 13.25H4.08333M4.08333 13.25C4.08333 14.1893 4.45647 15.0902 5.12066 15.7543C5.78485 16.4185 6.68569 16.7917 7.625 16.7917C8.56431 16.7917 9.46514 16.4185 10.1293 15.7543C10.7935 15.0902 11.1667 14.1893 11.1667 13.25C11.1667 12.3107 10.7935 11.4099 10.1293 10.7457C9.46514 10.0815 8.56431 9.70834 7.625 9.70834C6.68569 9.70834 5.78485 10.0815 5.12066 10.7457C4.45647 11.4099 4.08333 12.3107 4.08333 13.25ZM25.3333 4.75001H26.75M1.25 4.75001H11.1667M20.375 8.29168C19.4357 8.29168 18.5349 7.91854 17.8707 7.25435C17.2065 6.59016 16.8333 5.68932 16.8333 4.75001C16.8333 3.8107 17.2065 2.90987 17.8707 2.24567C18.5349 1.58148 19.4357 1.20834 20.375 1.20834C21.3143 1.20834 22.2151 1.58148 22.8793 2.24567C23.5435 2.90987 23.9167 3.8107 23.9167 4.75001C23.9167 5.68932 23.5435 6.59016 22.8793 7.25435C22.2151 7.91854 21.3143 8.29168 20.375 8.29168Z" stroke="white" stroke-width="2" stroke-linecap="round" stroke-linejoin="round"/>
</svg>
