<svg width="23" height="27" viewBox="0 0 23 27" fill="none" xmlns="http://www.w3.org/2000/svg">
<path d="M22.2941 21.8235V23.0588H0.0588379V21.8235L2.52943 19.3529V11.9412C2.52943 8.11175 5.03707 4.7394 8.7059 3.65234V3.29411C8.7059 2.63886 8.96619 2.01046 9.42952 1.54714C9.89284 1.08381 10.5212 0.823517 11.1765 0.823517C11.8317 0.823517 12.4601 1.08381 12.9235 1.54714C13.3868 2.01046 13.6471 2.63886 13.6471 3.29411V3.65234C17.3159 4.7394 19.8235 8.11175 19.8235 11.9412V19.3529L22.2941 21.8235ZM13.6471 24.2941C13.6471 24.9493 13.3868 25.5777 12.9235 26.0411C12.4601 26.5044 11.8317 26.7647 11.1765 26.7647C10.5212 26.7647 9.89284 26.5044 9.42952 26.0411C8.96619 25.5777 8.7059 24.9493 8.7059 24.2941" fill="white"/>
</svg>
