<svg width="26" height="26" viewBox="0 0 26 26" fill="none" xmlns="http://www.w3.org/2000/svg">
<path fill-rule="evenodd" clip-rule="evenodd" d="M7.33333 5.91667C7.33333 4.41377 7.93036 2.97243 8.99306 1.90973C10.0558 0.847022 11.4971 0.25 13 0.25C14.5029 0.25 15.9442 0.847022 17.0069 1.90973C18.0696 2.97243 18.6667 4.41377 18.6667 5.91667C18.6667 7.41956 18.0696 8.8609 17.0069 9.9236C15.9442 10.9863 14.5029 11.5833 13 11.5833C11.4971 11.5833 10.0558 10.9863 8.99306 9.9236C7.93036 8.8609 7.33333 7.41956 7.33333 5.91667ZM7.33333 14.4167C5.45472 14.4167 3.65304 15.1629 2.32466 16.4913C0.996278 17.8197 0.25 19.6214 0.25 21.5C0.25 22.6272 0.697767 23.7082 1.4948 24.5052C2.29183 25.3022 3.37283 25.75 4.5 25.75H21.5C22.6272 25.75 23.7082 25.3022 24.5052 24.5052C25.3022 23.7082 25.75 22.6272 25.75 21.5C25.75 19.6214 25.0037 17.8197 23.6753 16.4913C22.347 15.1629 20.5453 14.4167 18.6667 14.4167H7.33333Z" fill="white"/>
</svg>
