<svg width="16" height="11" viewBox="0 0 16 11" fill="none" xmlns="http://www.w3.org/2000/svg">
<g clip-path="url(#clip0_603_1223)">
<path d="M14.9333 11.0001H1.06667C0.783769 11.0001 0.512458 10.8842 0.312419 10.6779C0.112381 10.4716 0 10.1918 0 9.90009L0 5.27276H0.768444L0.941778 4.84009H1.32978L1.50267 5.27092H3.01467V4.94322L3.14978 5.27322H3.93467L4.06978 4.93772V5.2723H7.82667V4.56463H7.89778C7.94844 4.56647 7.96311 4.57105 7.96311 4.65813V5.27322H9.90667V5.10867C10.1053 5.21272 10.3396 5.27367 10.588 5.27367L10.6302 5.27322H10.628H11.4458L11.6209 4.84238H12.0089L12.18 5.27322H13.756V4.86347L13.9942 5.27322H15.2547V2.56722H14.0071V2.88667L13.8324 2.56722H12.5498V2.88667L12.3893 2.56722H10.6573C10.3949 2.55354 10.1335 2.60923 9.89778 2.72901L9.90711 2.72488V2.56722H8.71245V2.72488C8.56784 2.60734 8.3852 2.55112 8.20178 2.56767H8.20444H3.83867L3.54578 3.26663L3.24489 2.56767H1.86978V2.88713L1.71822 2.56767H0.544889L0.00133333 3.85101V1.10101C0.00133333 0.809269 0.113714 0.52948 0.313753 0.32319C0.513792 0.1169 0.785102 0.00100708 1.068 0.00100708H14.9347C15.2176 0.00100708 15.4889 0.1169 15.6889 0.32319C15.889 0.52948 16.0013 0.809269 16.0013 1.10101V5.90434H15.1689C15.1556 5.90342 15.1396 5.90342 15.124 5.90342C14.9311 5.90342 14.752 5.96301 14.6027 6.06522L14.6062 6.06292V5.90434H13.3751C13.1828 5.89338 12.9925 5.94975 12.8351 6.0643L12.8378 6.06247V5.90388H10.6396V6.06247C10.4596 5.95781 10.2564 5.90316 10.0498 5.90388H10.0324H10.0333H8.58311V6.06247C8.39364 5.93731 8.16881 5.8816 7.94489 5.90434L7.94889 5.90388H6.32622L5.95467 6.31822L5.60711 5.90388H3.18311V8.61172H5.56178L5.94444 8.19097L6.30489 8.61172H7.77111V7.97784H7.97556C8.17214 7.98576 8.3682 7.95191 8.55156 7.87838L8.54178 7.88205V8.61263H9.75067V7.90726H9.80889C9.88267 7.90726 9.89022 7.91001 9.89022 7.98701V8.61309H13.564L13.6089 8.61401C13.8196 8.61401 14.016 8.54892 14.1796 8.43755L14.1756 8.43984V8.61309H15.3409L15.3964 8.61401C15.6147 8.61401 15.8222 8.56772 16.0107 8.48384L16.0004 8.48796V9.90055C16.0004 10.1923 15.8881 10.4721 15.688 10.6784C15.488 10.8847 15.2167 11.0005 14.9338 11.0005L14.9333 11.0001ZM9.38 8.23222H8.92756V6.29117H9.96578C10.1533 6.27325 10.3421 6.30578 10.5138 6.38559L10.5067 6.38284C10.6458 6.46167 10.7387 6.61201 10.7387 6.78434L10.7378 6.81505V6.81367L10.7382 6.83109C10.7382 7.05384 10.608 7.24542 10.4213 7.32884L10.4178 7.33022C10.5071 7.36322 10.5818 7.41959 10.6373 7.49247L10.6382 7.49338C10.701 7.6005 10.7272 7.72616 10.7129 7.85042L10.7133 7.84767V8.23176H10.2618V7.98884C10.2832 7.85658 10.2574 7.72082 10.1893 7.60659L10.1907 7.60888C10.1438 7.57216 10.0901 7.54563 10.033 7.5309C9.97582 7.51616 9.91638 7.51354 9.85822 7.52317L9.86089 7.52272H9.38V8.23176V8.23222ZM9.38 6.69222V7.12809H9.92667C10.0039 7.13544 10.0816 7.12119 10.1516 7.08684L10.1489 7.08822C10.1775 7.06917 10.201 7.04305 10.2173 7.01222C10.2336 6.9814 10.2422 6.94687 10.2422 6.91176L10.2418 6.90122C10.244 6.86618 10.2365 6.83169 10.2202 6.80086C10.2039 6.77003 10.1795 6.7446 10.1498 6.72751L10.1489 6.72705C10.0814 6.69594 10.0073 6.68331 9.93378 6.69038H9.93556L9.38 6.69222ZM5.36889 8.23176H3.588V6.29117H5.39689L5.95022 6.92734L6.52222 6.29117H7.95911C8.46933 6.29117 8.71733 6.50063 8.71733 6.93055C8.71733 7.36826 8.46089 7.58092 7.93511 7.58092H7.37289V8.2313H6.49867L5.94489 7.59009L5.36933 8.23176H5.36889ZM6.92489 6.49926L6.23422 7.26467L6.92489 8.05484V6.49926ZM4.03644 7.44113V7.82705H5.14222L5.65333 7.2578L5.16178 6.69222H4.036V7.04513H5.02356V7.44067L4.03644 7.44113ZM7.37289 6.69267V7.18676H7.95378C8.13156 7.18676 8.23378 7.09326 8.23378 6.93009C8.23378 6.77426 8.13867 6.69222 7.95867 6.69222L7.37289 6.69267ZM15.3898 8.23267H14.5213V7.81559H15.3862C15.4509 7.82479 15.5166 7.80734 15.5689 7.76701L15.5684 7.76747C15.5851 7.75149 15.5985 7.73213 15.6076 7.7106C15.6167 7.68907 15.6214 7.66583 15.6213 7.64234V7.63501C15.6214 7.61181 15.6165 7.58888 15.6071 7.56782C15.5976 7.54677 15.5838 7.52809 15.5667 7.51309C15.5207 7.47881 15.4639 7.46345 15.4076 7.47001H15.4084L15.3253 7.46726C14.9191 7.45626 14.4591 7.44342 14.4591 6.86913C14.4591 6.58955 14.6289 6.29117 15.104 6.29117H16.0004V6.70459H15.1804C15.1171 6.69728 15.0531 6.71041 14.9973 6.74217L14.9991 6.74126C14.9772 6.75615 14.9595 6.77686 14.948 6.80122C14.9365 6.82558 14.9316 6.85268 14.9338 6.87967V6.87922V6.88426C14.9338 6.91514 14.9432 6.94524 14.9608 6.97026C14.9783 6.99527 15.0031 7.01394 15.0316 7.02359L15.0324 7.02405C15.0888 7.04197 15.1478 7.04942 15.2067 7.04605H15.2053L15.4493 7.05247C15.6333 7.03354 15.817 7.09001 15.9609 7.20967L15.9596 7.20876C15.9729 7.21976 15.9844 7.23167 15.9947 7.24497L15.9951 7.24542L16.0004 7.98426C15.9257 8.07432 15.8306 8.14405 15.7236 8.18729C15.6166 8.23053 15.5008 8.24596 15.3867 8.23222L15.3898 8.23267ZM13.6347 8.23267H12.7582V7.81559H13.6302C13.6955 7.8244 13.7615 7.80701 13.8147 7.76701L13.8138 7.76747C13.8304 7.75143 13.8436 7.73205 13.8526 7.71053C13.8616 7.689 13.8663 7.66579 13.8662 7.64234V7.63776C13.8662 7.61417 13.8613 7.59085 13.8519 7.56936C13.8425 7.54787 13.8287 7.52869 13.8116 7.51309C13.7647 7.47878 13.7073 7.46344 13.6502 7.47001H13.6511L13.5684 7.46726C13.1636 7.45626 12.704 7.44342 12.704 6.86913C12.704 6.58955 12.8729 6.29117 13.3471 6.29117H14.2484V6.70459H13.4236C13.3606 6.69736 13.2971 6.71049 13.2418 6.74217L13.2436 6.74126C13.2202 6.75783 13.2016 6.78059 13.1898 6.80714C13.178 6.8337 13.1733 6.86306 13.1763 6.89212C13.1793 6.92118 13.1899 6.94887 13.2069 6.97225C13.2239 6.99563 13.2467 7.01385 13.2729 7.02497L13.2738 7.02542C13.3309 7.04348 13.3906 7.05093 13.4502 7.04742H13.4489L13.6911 7.05384C13.876 7.03547 14.0606 7.09201 14.2058 7.21151L14.2044 7.21013C14.2533 7.26566 14.2904 7.33102 14.3135 7.4021C14.3366 7.47318 14.3452 7.54843 14.3387 7.62309V7.6208C14.34 8.02551 14.1022 8.23176 13.6333 8.23176L13.6347 8.23267ZM12.4889 8.23267H10.9867V6.29072H12.4876V6.69176H11.4356V7.04467H12.4631V7.44022H11.4356V7.82613L12.4889 7.82797V8.2313V8.23267ZM13.3644 4.89326H12.4484L12.2733 4.46059H11.3391L11.1693 4.89326H10.6431C10.4068 4.90611 10.1741 4.82932 9.98889 4.67738L9.99111 4.67876C9.90313 4.57862 9.83635 4.46067 9.79503 4.33244C9.7537 4.2042 9.73875 4.06849 9.75111 3.93397L9.75067 3.93763C9.73922 3.80063 9.75491 3.66265 9.79678 3.5321C9.83865 3.40154 9.90582 3.28113 9.99422 3.17817L9.99333 3.17909C10.0867 3.09493 10.1958 3.03148 10.3139 2.99269C10.4321 2.95389 10.5567 2.94059 10.68 2.95359L10.6764 2.95313H11.112V3.36701H10.6853C10.6229 3.35871 10.5595 3.36472 10.4995 3.38461C10.4396 3.40449 10.3847 3.43776 10.3387 3.48205L10.3391 3.48159C10.2441 3.60708 10.198 3.76467 10.2098 3.92342V3.92113C10.1956 4.08424 10.2401 4.24703 10.3347 4.37855L10.3333 4.37672C10.4217 4.45118 10.5348 4.48704 10.6484 4.47663H10.6467H10.8484L11.4844 2.95038H12.16L12.9213 4.78372V2.95038H13.6062L14.3964 4.30155V2.95038H14.8587V4.89005H14.2169L13.3636 3.43347V4.89005L13.3644 4.89326ZM11.8093 3.28084L11.4996 4.05451H12.1204L11.8093 3.28084ZM7.45422 4.89234H7.00444V2.95176H8.03911C8.22798 2.93155 8.41863 2.96466 8.59067 3.04755L8.584 3.0448C8.65317 3.08425 8.71084 3.14208 8.75101 3.21228C8.79118 3.28248 8.8124 3.36249 8.81244 3.44401L8.81156 3.47609V3.47472V3.48892C8.81159 3.59478 8.782 3.69839 8.72635 3.78733C8.67069 3.87628 8.59132 3.94676 8.49778 3.99034L8.49422 3.99172C8.58356 4.02655 8.65867 4.08247 8.716 4.15397L8.71689 4.15488C8.7803 4.2624 8.80647 4.38892 8.79111 4.51376L8.79156 4.51101V4.89188H8.33778L8.336 4.64713V4.61047C8.35215 4.49079 8.32647 4.3691 8.26356 4.26717L8.26489 4.26947C8.21782 4.2338 8.16436 4.20811 8.1076 4.19387C8.05085 4.17963 7.99192 4.17713 7.93422 4.18651L7.93689 4.18605H7.45467V4.89188L7.45422 4.89234ZM7.45422 3.35555V3.78638H8C8.0771 3.79501 8.15498 3.78069 8.22444 3.74513L8.22222 3.74605C8.25069 3.7282 8.27423 3.7031 8.29058 3.67316C8.30692 3.64322 8.31552 3.60945 8.31556 3.57509L8.31511 3.56226C8.31737 3.52743 8.3097 3.49314 8.29303 3.46276C8.27637 3.43238 8.25144 3.4077 8.22133 3.39176L8.22044 3.3913C8.15281 3.36137 8.07915 3.34879 8.00578 3.35463H8.00711L7.45422 3.35555ZM2.69156 4.89234H1.77778L1.60489 4.45967H0.668L0.493778 4.89234H0.00488889L0.810667 2.95176H1.47867L2.24356 4.7883V2.95176H2.97733L3.56578 4.26763L4.10667 2.95176H4.85556V4.89142H4.39333L4.39244 3.37342L3.74044 4.89188H3.34578L2.692 3.37113V4.89188L2.69156 4.89234ZM1.13422 3.28084L0.828 4.05451H1.44222L1.13422 3.28084ZM9.52889 4.89188H9.07022V2.95176H9.52933V4.89142L9.52889 4.89188ZM6.69067 4.89188H5.19111V2.95176H6.69333V3.35509H5.64089V3.7048H6.668V4.10309H5.64V4.49084H6.69244V4.89142L6.69067 4.89188Z" fill="#006BA6"/>
</g>
<defs>
<clipPath id="clip0_603_1223">
<rect width="16" height="11" fill="white"/>
</clipPath>
</defs>
</svg>
