<svg width="53" height="62" viewBox="0 0 53 62" fill="none" xmlns="http://www.w3.org/2000/svg">
<path d="M20.6111 56.0952H32.3889C32.3889 59.3429 29.7389 62 26.5 62C23.2611 62 20.6111 59.3429 20.6111 56.0952ZM53 50.1905V53.1429H0V50.1905L5.88889 44.2857V26.5714C5.88889 17.419 11.7778 9.44762 20.6111 6.79048V5.90476C20.6111 2.65714 23.2611 0 26.5 0C29.7389 0 32.3889 2.65714 32.3889 5.90476V6.79048C41.2222 9.44762 47.1111 17.419 47.1111 26.5714V44.2857L53 50.1905ZM41.2222 26.5714C41.2222 18.3048 34.7444 11.8095 26.5 11.8095C18.2556 11.8095 11.7778 18.3048 11.7778 26.5714V47.2381H41.2222V26.5714Z" fill="#777777"/>
</svg>
