<svg width="18" height="17" viewBox="0 0 18 17" fill="none" xmlns="http://www.w3.org/2000/svg">
<path d="M17.3327 5.66667C17.3328 5.51544 17.2916 5.36705 17.2135 5.2375L14.956 1.47501C14.8073 1.22904 14.5978 1.02548 14.3476 0.883915C14.0975 0.742348 13.8151 0.667535 13.5277 0.666672H4.47102C3.88935 0.666672 3.34185 0.976672 3.04268 1.47584L0.785182 5.2375C0.70714 5.36705 0.665937 5.51544 0.666016 5.66667C0.666016 6.50417 0.987682 7.26167 1.49935 7.84834V15.6667C1.49935 15.8877 1.58715 16.0996 1.74343 16.2559C1.89971 16.4122 2.11167 16.5 2.33268 16.5H8.99935C9.22036 16.5 9.43232 16.4122 9.5886 16.2559C9.74489 16.0996 9.83268 15.8877 9.83268 15.6667V11.5H13.166V15.6667C13.166 15.8877 13.2538 16.0996 13.4101 16.2559C13.5664 16.4122 13.7783 16.5 13.9993 16.5H15.666C15.887 16.5 16.099 16.4122 16.2553 16.2559C16.4116 16.0996 16.4993 15.8877 16.4993 15.6667V7.84834C17.011 7.26167 17.3327 6.50417 17.3327 5.66667ZM15.6527 5.87584C15.6014 6.27826 15.4053 6.64822 15.101 6.91648C14.7967 7.18475 14.405 7.33294 13.9993 7.33334C13.0802 7.33334 12.3327 6.58584 12.3327 5.66667C12.3327 5.61 12.3118 5.56001 12.3002 5.50667L12.3168 5.50334L11.6827 2.33334H13.5277L15.6527 5.87584ZM7.33852 5.72084L8.01518 2.33334H9.98268L10.6602 5.72084C10.631 6.615 9.89935 7.33334 8.99935 7.33334C8.09935 7.33334 7.36768 6.615 7.33852 5.72084ZM4.47102 2.33334H6.31602L5.68268 5.50334L5.69935 5.50667C5.68685 5.56001 5.66602 5.61 5.66602 5.66667C5.66602 6.58584 4.91852 7.33334 3.99935 7.33334C3.59367 7.33294 3.20204 7.18475 2.89773 6.91648C2.59342 6.64822 2.39728 6.27826 2.34602 5.87584L4.47102 2.33334ZM7.33268 12.3333H3.99935V9.83334H7.33268V12.3333Z" fill="#545F71"/>
</svg>
