<svg width="26" height="24" viewBox="0 0 26 24" fill="none" xmlns="http://www.w3.org/2000/svg">
<path fill-rule="evenodd" clip-rule="evenodd" d="M11.582 13.9139L17.1243 19.1705C17.4184 19.4493 17.8173 19.606 18.2332 19.606C18.6491 19.606 19.048 19.4493 19.3421 19.1705C19.6362 18.8916 19.8014 18.5133 19.8014 18.1189C19.8014 17.7246 19.6362 17.3463 19.3421 17.0674L13.7977 11.8119L19.3411 6.55635C19.4866 6.41827 19.6021 6.25435 19.6808 6.07395C19.7596 5.89356 19.8001 5.70023 19.8 5.50499C19.8 5.30976 19.7594 5.11644 19.6805 4.93608C19.6017 4.75572 19.4862 4.59186 19.3406 4.45384C19.1949 4.31582 19.0221 4.20634 18.8318 4.13167C18.6416 4.057 18.4377 4.01859 18.2318 4.01864C18.0259 4.01869 17.8221 4.05719 17.6319 4.13194C17.4417 4.2067 17.2688 4.31625 17.1233 4.45433L11.582 9.70988L6.0396 4.45433C5.89505 4.31229 5.72212 4.19896 5.53089 4.12096C5.33967 4.04297 5.13397 4.00187 4.92581 4.00006C4.71766 3.99825 4.5112 4.03578 4.3185 4.11044C4.1258 4.1851 3.95071 4.2954 3.80344 4.43491C3.65618 4.57443 3.53969 4.74035 3.46077 4.92301C3.38186 5.10567 3.34209 5.3014 3.3438 5.49879C3.34551 5.69618 3.38866 5.89126 3.47073 6.07267C3.5528 6.25407 3.67215 6.41816 3.82181 6.55536L9.36628 11.8119L3.82286 17.0674C3.52876 17.3463 3.36354 17.7246 3.36354 18.1189C3.36354 18.5133 3.52876 18.8916 3.82286 19.1705C4.11696 19.4493 4.51584 19.606 4.93175 19.606C5.34767 19.606 5.74655 19.4493 6.04064 19.1705L11.582 13.9129V13.9139Z" fill="#FF0066"/>
</svg>
