<svg width="79" height="79" viewBox="0 0 79 79" fill="none" xmlns="http://www.w3.org/2000/svg">
<g clip-path="url(#clip0_1092_1572)">
<path fill-rule="evenodd" clip-rule="evenodd" d="M0 39.5C0 29.024 4.1616 18.977 11.5693 11.5693C18.977 4.1616 29.024 0 39.5 0C49.9761 0 60.023 4.1616 67.4307 11.5693C74.8384 18.977 79 29.024 79 39.5C79 49.9761 74.8384 60.023 67.4307 67.4307C60.023 74.8384 49.9761 79 39.5 79C29.024 79 18.977 74.8384 11.5693 67.4307C4.1616 60.023 0 49.9761 0 39.5ZM37.2459 56.406L59.9873 27.9765L55.8793 24.6901L36.4875 48.9221L22.752 37.4776L19.3813 41.5224L37.2459 56.4113V56.406Z" fill="#FF0066"/>
</g>
<defs>
<clipPath id="clip0_1092_1572">
<rect width="79" height="79" fill="white"/>
</clipPath>
</defs>
</svg>
