<svg width="20" height="14" viewBox="0 0 20 14" fill="none" xmlns="http://www.w3.org/2000/svg">
<path d="M10 4C10.7956 4 11.5587 4.31607 12.1213 4.87868C12.6839 5.44129 13 6.20435 13 7C13 7.79565 12.6839 8.55871 12.1213 9.12132C11.5587 9.68393 10.7956 10 10 10C9.20435 10 8.44129 9.68393 7.87868 9.12132C7.31607 8.55871 7 7.79565 7 7C7 6.20435 7.31607 5.44129 7.87868 4.87868C8.44129 4.31607 9.20435 4 10 4Z" fill="#828181"/>
<path d="M14.681 11.673C13.2782 12.5507 11.6547 13.0109 10 13C6.4 13 3.4 11 1 7.00003C2.272 4.88003 3.712 3.32203 5.32 2.32603M8.18 1.18003C8.77904 1.05876 9.38881 0.998454 10 1.00003C13.6 1.00003 16.6 3.00003 19 7.00003C18.334 8.11003 17.621 9.06703 16.862 9.87003" stroke="#828181" stroke-width="2" stroke-linecap="round" stroke-linejoin="round"/>
</svg>
