<svg width="10" height="6" viewBox="0 0 10 6" fill="none" xmlns="http://www.w3.org/2000/svg">
<path d="M5.83333 4.25004H8.75M1.25 4.25004H2.08333M2.08333 4.25004C2.08333 4.52631 2.19308 4.79126 2.38843 4.98661C2.58378 5.18196 2.84873 5.29171 3.125 5.29171C3.40127 5.29171 3.66622 5.18196 3.86157 4.98661C4.05692 4.79126 4.16667 4.52631 4.16667 4.25004C4.16667 3.97377 4.05692 3.70882 3.86157 3.51347C3.66622 3.31812 3.40127 3.20837 3.125 3.20837C2.84873 3.20837 2.58378 3.31812 2.38843 3.51347C2.19308 3.70882 2.08333 3.97377 2.08333 4.25004ZM8.33333 1.75004H8.75M1.25 1.75004H4.16667M6.875 2.79171C6.59873 2.79171 6.33378 2.68196 6.13843 2.48661C5.94308 2.29126 5.83333 2.02631 5.83333 1.75004C5.83333 1.47377 5.94308 1.20882 6.13843 1.01347C6.33378 0.818121 6.59873 0.708374 6.875 0.708374C7.15127 0.708374 7.41622 0.818121 7.61157 1.01347C7.80692 1.20882 7.91667 1.47377 7.91667 1.75004C7.91667 2.02631 7.80692 2.29126 7.61157 2.48661C7.41622 2.68196 7.15127 2.79171 6.875 2.79171Z" stroke="black" stroke-width="0.833333" stroke-linecap="round" stroke-linejoin="round"/>
</svg>
