<svg width="120" height="20" viewBox="0 0 120 20" fill="none" xmlns="http://www.w3.org/2000/svg">
<path d="M18.3333 2.84166L18.2333 1.79166L17.2333 2.125C15.5195 2.72045 13.6894 2.90318 11.8917 2.65833C10.0026 2.36517 8.0691 2.62568 6.325 3.40833C5.4004 3.80204 4.58896 4.42076 3.96456 5.20817C3.34017 5.99558 2.92264 6.92667 2.75 7.91666C2.52615 9.19557 2.63814 10.5107 3.075 11.7333C3.3563 11.0984 3.685 10.4856 4.05834 9.9C4.90517 8.65403 6.07857 7.66515 7.45 7.04166C8.7712 6.43843 10.2153 6.15304 11.6667 6.20833C10.285 6.41958 8.9625 6.91623 7.78334 7.66666C7.21456 8.02404 6.69369 8.4525 6.23334 8.94166C5.79305 9.4306 5.40485 9.96403 5.075 10.5333C4.45544 11.7233 4.0146 12.9981 3.76667 14.3167C3.49943 15.6394 3.35437 16.984 3.33334 18.3333H5C5.07833 17.1232 5.24264 15.9202 5.49167 14.7333C6.64786 15.3577 7.94446 15.6761 9.25833 15.6583C10.4837 15.6575 11.6965 15.411 12.825 14.9333C19.1667 12.225 18.3333 3.21666 18.3333 2.84166Z" fill="#0FA958"/>
<path d="M43.3333 2.84166L43.2333 1.79166L42.2333 2.125C40.5195 2.72045 38.6894 2.90318 36.8917 2.65833C35.0026 2.36517 33.0691 2.62568 31.325 3.40833C30.4004 3.80204 29.589 4.42076 28.9646 5.20817C28.3402 5.99558 27.9226 6.92667 27.75 7.91666C27.5261 9.19557 27.6381 10.5107 28.075 11.7333C28.3563 11.0984 28.685 10.4856 29.0583 9.9C29.9052 8.65403 31.0786 7.66515 32.45 7.04166C33.7712 6.43843 35.2153 6.15304 36.6667 6.20833C35.285 6.41958 33.9625 6.91623 32.7833 7.66666C32.2146 8.02404 31.6937 8.4525 31.2333 8.94166C30.7931 9.4306 30.4049 9.96403 30.075 10.5333C29.4554 11.7233 29.0146 12.9981 28.7667 14.3167C28.4994 15.6394 28.3544 16.984 28.3333 18.3333H30C30.0783 17.1232 30.2426 15.9202 30.4917 14.7333C31.6479 15.3577 32.9445 15.6761 34.2583 15.6583C35.4837 15.6575 36.6965 15.411 37.825 14.9333C44.1667 12.225 43.3333 3.21666 43.3333 2.84166Z" fill="#0FA958"/>
<path d="M68.3333 2.84166L68.2333 1.79166L67.2333 2.125C65.5195 2.72045 63.6894 2.90318 61.8917 2.65833C60.0026 2.36517 58.0691 2.62568 56.325 3.40833C55.4004 3.80204 54.589 4.42076 53.9646 5.20817C53.3402 5.99558 52.9226 6.92667 52.75 7.91666C52.5261 9.19557 52.6381 10.5107 53.075 11.7333C53.3563 11.0984 53.685 10.4856 54.0583 9.9C54.9052 8.65403 56.0786 7.66515 57.45 7.04166C58.7712 6.43843 60.2153 6.15304 61.6667 6.20833C60.285 6.41958 58.9625 6.91623 57.7833 7.66666C57.2146 8.02404 56.6937 8.4525 56.2333 8.94166C55.7931 9.4306 55.4049 9.96403 55.075 10.5333C54.4554 11.7233 54.0146 12.9981 53.7667 14.3167C53.4994 15.6394 53.3544 16.984 53.3333 18.3333H55C55.0783 17.1232 55.2426 15.9202 55.4917 14.7333C56.6479 15.3577 57.9445 15.6761 59.2583 15.6583C60.4837 15.6575 61.6965 15.411 62.825 14.9333C69.1667 12.225 68.3333 3.21666 68.3333 2.84166Z" fill="#0FA958"/>
<path d="M93.3333 2.84166L93.2333 1.79166L92.2333 2.125C90.5195 2.72045 88.6894 2.90318 86.8917 2.65833C85.0026 2.36517 83.0691 2.62568 81.325 3.40833C80.4004 3.80204 79.589 4.42076 78.9646 5.20817C78.3402 5.99558 77.9226 6.92667 77.75 7.91666C77.5261 9.19557 77.6381 10.5107 78.075 11.7333C78.3563 11.0984 78.685 10.4856 79.0583 9.9C79.9052 8.65403 81.0786 7.66515 82.45 7.04166C83.7712 6.43843 85.2153 6.15304 86.6667 6.20833C85.285 6.41958 83.9625 6.91623 82.7833 7.66666C82.2146 8.02404 81.6937 8.4525 81.2333 8.94166C80.7931 9.4306 80.4049 9.96403 80.075 10.5333C79.4554 11.7233 79.0146 12.9981 78.7667 14.3167C78.4994 15.6394 78.3544 16.984 78.3333 18.3333H80C80.0783 17.1232 80.2426 15.9202 80.4917 14.7333C81.6479 15.3577 82.9445 15.6761 84.2583 15.6583C85.4837 15.6575 86.6965 15.411 87.825 14.9333C94.1667 12.225 93.3333 3.21666 93.3333 2.84166Z" fill="#0FA958"/>
<path d="M118.333 2.84166L118.233 1.79166L117.233 2.125C115.52 2.72045 113.689 2.90318 111.892 2.65833C110.003 2.36517 108.069 2.62568 106.325 3.40833C105.4 3.80204 104.589 4.42076 103.965 5.20817C103.34 5.99558 102.923 6.92667 102.75 7.91666C102.526 9.19557 102.638 10.5107 103.075 11.7333C103.356 11.0984 103.685 10.4856 104.058 9.9C104.905 8.65403 106.079 7.66515 107.45 7.04166C108.771 6.43843 110.215 6.15304 111.667 6.20833C110.285 6.41958 108.963 6.91623 107.783 7.66666C107.215 8.02404 106.694 8.4525 106.233 8.94166C105.793 9.4306 105.405 9.96403 105.075 10.5333C104.455 11.7233 104.015 12.9981 103.767 14.3167C103.499 15.6394 103.354 16.984 103.333 18.3333H105C105.078 17.1232 105.243 15.9202 105.492 14.7333C106.648 15.3577 107.944 15.6761 109.258 15.6583C110.484 15.6575 111.697 15.411 112.825 14.9333C119.167 12.225 118.333 3.21666 118.333 2.84166Z" fill="#0FA958"/>
</svg>
