<svg width="124" height="24" viewBox="0 0 124 24" fill="none" xmlns="http://www.w3.org/2000/svg">
<path d="M18.3333 4.84167L18.2333 3.79167L17.2333 4.125C15.5195 4.72045 13.6894 4.90318 11.8917 4.65833C10.0026 4.36518 8.0691 4.62568 6.325 5.40833C5.4004 5.80204 4.58896 6.42076 3.96456 7.20818C3.34017 7.99559 2.92264 8.92667 2.75 9.91667C2.52615 11.1956 2.63814 12.5107 3.075 13.7333C3.3563 13.0984 3.685 12.4856 4.05834 11.9C4.90517 10.654 6.07857 9.66515 7.45 9.04167C8.7712 8.43844 10.2153 8.15304 11.6667 8.20833C10.285 8.41958 8.9625 8.91624 7.78334 9.66667C7.21456 10.024 6.69369 10.4525 6.23334 10.9417C5.79305 11.4306 5.40485 11.964 5.075 12.5333C4.45544 13.7233 4.0146 14.9981 3.76667 16.3167C3.49943 17.6394 3.35437 18.984 3.33334 20.3333H5C5.07833 19.1232 5.24264 17.9202 5.49167 16.7333C6.64786 17.3577 7.94446 17.6761 9.25833 17.6583C10.4837 17.6575 11.6965 17.411 12.825 16.9333C19.1667 14.225 18.3333 5.21667 18.3333 4.84167Z" fill="#0FA958"/>
<path d="M43.3333 4.84167L43.2333 3.79167L42.2333 4.125C40.5195 4.72045 38.6894 4.90318 36.8917 4.65833C35.0026 4.36518 33.0691 4.62568 31.325 5.40833C30.4004 5.80204 29.589 6.42076 28.9646 7.20818C28.3402 7.99559 27.9226 8.92667 27.75 9.91667C27.5261 11.1956 27.6381 12.5107 28.075 13.7333C28.3563 13.0984 28.685 12.4856 29.0583 11.9C29.9052 10.654 31.0786 9.66515 32.45 9.04167C33.7712 8.43844 35.2153 8.15304 36.6667 8.20833C35.285 8.41958 33.9625 8.91624 32.7833 9.66667C32.2146 10.024 31.6937 10.4525 31.2333 10.9417C30.7931 11.4306 30.4049 11.964 30.075 12.5333C29.4554 13.7233 29.0146 14.9981 28.7667 16.3167C28.4994 17.6394 28.3544 18.984 28.3333 20.3333H30C30.0783 19.1232 30.2426 17.9202 30.4917 16.7333C31.6479 17.3577 32.9445 17.6761 34.2583 17.6583C35.4837 17.6575 36.6965 17.411 37.825 16.9333C44.1667 14.225 43.3333 5.21667 43.3333 4.84167Z" fill="#0FA958"/>
<path d="M68.3333 4.84167L68.2333 3.79167L67.2333 4.125C65.5195 4.72045 63.6894 4.90318 61.8917 4.65833C60.0026 4.36518 58.0691 4.62568 56.325 5.40833C55.4004 5.80204 54.589 6.42076 53.9646 7.20818C53.3402 7.99559 52.9226 8.92667 52.75 9.91667C52.5261 11.1956 52.6381 12.5107 53.075 13.7333C53.3563 13.0984 53.685 12.4856 54.0583 11.9C54.9052 10.654 56.0786 9.66515 57.45 9.04167C58.7712 8.43844 60.2153 8.15304 61.6667 8.20833C60.285 8.41958 58.9625 8.91624 57.7833 9.66667C57.2146 10.024 56.6937 10.4525 56.2333 10.9417C55.7931 11.4306 55.4049 11.964 55.075 12.5333C54.4554 13.7233 54.0146 14.9981 53.7667 16.3167C53.4994 17.6394 53.3544 18.984 53.3333 20.3333H55C55.0783 19.1232 55.2426 17.9202 55.4917 16.7333C56.6479 17.3577 57.9445 17.6761 59.2583 17.6583C60.4837 17.6575 61.6965 17.411 62.825 16.9333C69.1667 14.225 68.3333 5.21667 68.3333 4.84167Z" fill="#0FA958"/>
<path d="M93.3333 4.84167L93.2333 3.79167L92.2333 4.125C90.5195 4.72045 88.6894 4.90318 86.8917 4.65833C85.0026 4.36518 83.0691 4.62568 81.325 5.40833C80.4004 5.80204 79.589 6.42076 78.9646 7.20818C78.3402 7.99559 77.9226 8.92667 77.75 9.91667C77.5261 11.1956 77.6381 12.5107 78.075 13.7333C78.3563 13.0984 78.685 12.4856 79.0583 11.9C79.9052 10.654 81.0786 9.66515 82.45 9.04167C83.7712 8.43844 85.2153 8.15304 86.6667 8.20833C85.285 8.41958 83.9625 8.91624 82.7833 9.66667C82.2146 10.024 81.6937 10.4525 81.2333 10.9417C80.7931 11.4306 80.4049 11.964 80.075 12.5333C79.4554 13.7233 79.0146 14.9981 78.7667 16.3167C78.4994 17.6394 78.3544 18.984 78.3333 20.3333H80C80.0783 19.1232 80.2426 17.9202 80.4917 16.7333C81.6479 17.3577 82.9445 17.6761 84.2583 17.6583C85.4837 17.6575 86.6965 17.411 87.825 16.9333C94.1667 14.225 93.3333 5.21667 93.3333 4.84167Z" fill="#0FA958"/>
<path d="M121.001 2.15002L119.857 2.5329C117.897 3.21684 115.804 3.42673 113.748 3.14549C111.588 2.80877 109.376 3.10798 107.382 4.00695C106.324 4.45917 105.396 5.16984 104.682 6.07427C103.968 6.97871 103.49 8.04817 103.293 9.18529C103.092 10.2788 103.113 11.4018 103.353 12.4872C103.594 13.5725 104.05 14.5981 104.694 15.5027C104.637 15.7037 104.58 15.9047 104.532 16.1057C104.145 17.7588 103.953 19.4519 103.96 21.15H105.866C105.956 19.76 106.144 18.3782 106.429 17.015C107.751 17.7321 109.234 18.0979 110.736 18.0775C112.138 18.0765 113.525 17.7934 114.815 17.2447C122.068 14.1339 121.115 3.7868 121.115 3.35607L121.001 2.15002ZM114.072 15.4835C111.585 16.546 108.611 16.3641 106.943 15.0528C107.225 14.1062 107.612 13.1943 108.096 12.3344C108.473 11.7155 108.917 11.1408 109.421 10.6211C109.936 10.0957 110.516 9.63895 111.146 9.26186C112.449 8.47942 113.894 7.96531 115.397 7.74952V6.79234C113.668 6.73223 111.949 7.08659 110.384 7.82609C108.783 8.61055 107.425 9.81842 106.457 11.3198C106.098 11.8932 105.78 12.4913 105.504 13.1097C105.062 11.9748 104.937 10.7405 105.142 9.53944C105.276 8.6986 105.621 7.9059 106.145 7.23606C106.668 6.56621 107.353 6.04128 108.134 5.71073C109.274 5.17582 110.517 4.90122 111.775 4.9067C112.366 4.9067 112.947 4.96413 113.557 5.01199C115.468 5.25952 117.407 5.14589 119.276 4.67698C119.209 7.31879 118.732 13.4926 114.072 15.4835Z" fill="#0FA958"/>
<path d="M106.257 9.50531C106.171 10.3693 105.312 11.4329 105.74 12.3428C106.101 13.1097 105.635 11.3447 105.601 11.1447C105.549 10.8327 105.576 10.5024 105.576 10.1863" stroke="#0FA958" stroke-width="3" stroke-linecap="round"/>
<path d="M105.009 12.2293C105.748 13.8729 106.919 15.1191 108.697 15.5144C109.552 15.7042 110.485 15.6342 111.365 15.6342C112.407 15.6342 113.032 15.3495 113.912 14.7893C114.455 14.4439 115.42 14.1566 115.703 13.5912C115.968 13.0605 116.585 12.9103 115.589 12.9103C114.598 12.9103 113.608 12.8302 112.638 12.7968C111.3 12.7506 109.955 12.7968 108.616 12.7968C108.267 12.7968 107.622 12.9495 107.481 12.595C107.351 12.2707 107.027 11.852 106.825 11.5483" stroke="#0FA958" stroke-width="3" stroke-linecap="round"/>
<path d="M105.236 9.27832C105.773 9.27832 106.429 9.38034 106.938 9.56207C107.652 9.81711 108.435 9.78139 109.158 10.0224C110.465 10.4581 112.026 10.4133 113.408 10.4133C114.787 10.4133 116.2 10.3896 117.544 10.634C118.079 10.7312 117.376 11.3094 117.153 11.5735C116.842 11.9417 116.388 12.3485 115.993 12.6328C114.664 13.59 113.18 14.2298 111.592 14.7262" stroke="#0FA958" stroke-width="3" stroke-linecap="round"/>
</svg>
