<svg width="26" height="26" viewBox="0 0 26 26" fill="none" xmlns="http://www.w3.org/2000/svg">
<circle cx="13" cy="13" r="13" fill="white"/>
<path d="M22.0798 10.7863H21.375V10.75H13.5V14.25H18.4451C17.7236 16.2874 15.7851 17.75 13.5 17.75C10.6007 17.75 8.25 15.3993 8.25 12.5C8.25 9.60069 10.6007 7.25 13.5 7.25C14.8383 7.25 16.0559 7.75487 16.9829 8.57956L19.4579 6.10462C17.8951 4.64819 15.8048 3.75 13.5 3.75C8.66781 3.75 4.75 7.66781 4.75 12.5C4.75 17.3322 8.66781 21.25 13.5 21.25C18.3322 21.25 22.25 17.3322 22.25 12.5C22.25 11.9133 22.1896 11.3406 22.0798 10.7863Z" fill="#FFC107"/>
<path d="M5.75885 8.42731L8.63366 10.5356C9.41154 8.60975 11.2954 7.25 13.5 7.25C14.8383 7.25 16.0559 7.75487 16.9829 8.57956L19.4579 6.10462C17.8951 4.64819 15.8047 3.75 13.5 3.75C10.1391 3.75 7.22448 5.64744 5.75885 8.42731Z" fill="#FF3D00"/>
<path d="M13.5 21.25C15.7601 21.25 17.8138 20.3851 19.3665 18.9785L16.6583 16.6869C15.7503 17.3774 14.6408 17.7509 13.5 17.75C11.2241 17.75 9.2917 16.2988 8.5637 14.2736L5.71033 16.4721C7.15845 19.3057 10.0993 21.25 13.5 21.25Z" fill="#4CAF50"/>
<path d="M22.0798 10.7863H21.375V10.75H13.5V14.25H18.4451C18.1 15.2197 17.4783 16.067 16.657 16.6873L16.6583 16.6864L19.3664 18.9781C19.1748 19.1522 22.25 16.875 22.25 12.5C22.25 11.9133 22.1896 11.3406 22.0798 10.7863Z" fill="#1976D2"/>
</svg>
