<svg width="19" height="20" viewBox="0 0 19 20" fill="none" xmlns="http://www.w3.org/2000/svg">
<path d="M18.0006 0.150024L16.857 0.532896C14.8969 1.21684 12.8039 1.42673 10.7479 1.14549C8.58751 0.808766 6.37623 1.10798 4.38158 2.00695C3.32416 2.45917 2.39615 3.16984 1.68205 4.07427C0.967958 4.97871 0.490453 6.04817 0.293014 7.18529C0.0921768 8.27882 0.112721 9.40178 0.353422 10.4872C0.594122 11.5725 1.05005 12.5981 1.69399 13.5027C1.63681 13.7037 1.57963 13.9047 1.53197 14.1057C1.14489 15.7588 0.952955 17.4519 0.960147 19.15H2.86624C2.95582 17.76 3.14373 16.3782 3.42854 15.015C4.75082 15.7321 6.23369 16.0979 7.7363 16.0775C9.13773 16.0765 10.5247 15.7934 11.8153 15.2447C19.068 12.1339 18.115 1.7868 18.115 1.35607L18.0006 0.150024ZM11.072 13.4835C8.58451 14.546 5.61101 14.3641 3.94318 13.0528C4.22506 12.1062 4.61188 11.1943 5.09637 10.3344C5.47301 9.7155 5.91734 9.14082 6.4211 8.62106C6.93584 8.09575 7.51558 7.63895 8.14611 7.26186C9.44899 6.47942 10.8939 5.96531 12.3967 5.74952V4.79234C10.6677 4.73223 8.94924 5.08659 7.38368 5.82609C5.78296 6.61055 4.42544 7.81842 3.45713 9.3198C3.09799 9.89322 2.77952 10.4913 2.50408 11.1097C2.06236 9.97484 1.93715 8.74047 2.14192 7.53944C2.27609 6.6986 2.62121 5.9059 3.14477 5.23606C3.66832 4.56621 4.35307 4.04128 5.13449 3.71073C6.27396 3.17582 7.51733 2.90122 8.77512 2.9067C9.36601 2.9067 9.94737 2.96413 10.5573 3.01199C12.4675 3.25952 14.407 3.14589 16.2756 2.67698C16.2089 5.31879 15.7324 11.4926 11.072 13.4835Z" fill="#0FA958"/>
</svg>
