<svg width="26" height="24" viewBox="0 0 26 24" fill="none" xmlns="http://www.w3.org/2000/svg">
<path d="M12.6089 0C11.0214 0 9.60886 1 9.08386 2.5H1.35886V5H3.79636L0.108863 13.75C-0.478637 16.25 1.35886 17.5 4.48386 17.5C7.60886 17.5 9.55886 16.25 8.85886 13.75L5.17136 5H9.07136C9.48386 6.0625 10.2964 6.875 11.3589 7.2875V21.25H0.108863V23.75H25.1089V21.25H13.8589V7.275C14.9214 6.875 15.7339 6.0625 16.1339 5H20.0464L16.3589 13.75C15.7714 16.25 17.6089 17.5 20.7339 17.5C23.8589 17.5 25.8089 16.25 25.1089 13.75L21.4214 5H23.8589V2.5H16.1464C15.6089 1 14.1964 0 12.6089 0ZM12.6089 2.5C12.9404 2.5 13.2583 2.6317 13.4927 2.86612C13.7272 3.10054 13.8589 3.41848 13.8589 3.75C13.8589 4.08152 13.7272 4.39946 13.4927 4.63388C13.2583 4.8683 12.9404 5 12.6089 5C12.2773 5 11.9594 4.8683 11.725 4.63388C11.4906 4.39946 11.3589 4.08152 11.3589 3.75C11.3589 3.41848 11.4906 3.10054 11.725 2.86612C11.9594 2.6317 12.2773 2.5 12.6089 2.5ZM4.48386 9.0625L6.35886 13.75H2.60886L4.48386 9.0625ZM20.7339 9.0625L22.6089 13.75H18.8589L20.7339 9.0625Z" fill="black"/>
</svg>
