<svg width="16" height="20" viewBox="0 0 16 20" fill="none" xmlns="http://www.w3.org/2000/svg">
<path d="M8 12C10.206 12 12 10.206 12 8C12 5.794 10.206 4 8 4C5.794 4 4 5.794 4 8C4 10.206 5.794 12 8 12ZM8 6C9.103 6 10 6.897 10 8C10 9.103 9.103 10 8 10C6.897 10 6 9.103 6 8C6 6.897 6.897 6 8 6Z" fill="#828181"/>
<path d="M7.42003 19.814C7.58927 19.9349 7.79205 19.9998 8.00003 19.9998C8.208 19.9998 8.41078 19.9349 8.58003 19.814C8.88403 19.599 16.029 14.44 16 8C16 3.589 12.411 0 8.00003 0C3.58903 0 2.70026e-05 3.589 2.70026e-05 7.995C-0.028973 14.44 7.11603 19.599 7.42003 19.814ZM8.00003 2C11.309 2 14 4.691 14 8.005C14.021 12.443 9.61203 16.428 8.00003 17.735C6.38903 16.427 1.97903 12.441 2.00003 8C2.00003 4.691 4.69103 2 8.00003 2Z" fill="#828181"/>
</svg>
