<svg width="17" height="15" viewBox="0 0 17 15" fill="none" xmlns="http://www.w3.org/2000/svg">
<path d="M7.92621 13.1686L7.92475 13.1673C5.71574 11.2409 3.96467 9.70919 2.75415 8.28494C1.55325 6.872 1 5.69505 1 4.49591C1 2.55993 2.5709 1 4.675 1C5.86593 1 7.01505 1.53822 7.75391 2.36612L8.5 3.20211L9.24609 2.36612C9.98495 1.53822 11.1341 1 12.325 1C14.4291 1 16 2.55993 16 4.49591C16 5.69505 15.4468 6.872 14.2458 8.28494C13.0353 9.70919 11.2843 11.2409 9.07525 13.1673L9.07379 13.1686L8.5 13.6709L7.92621 13.1686Z" fill="white" stroke="#FF0066" stroke-width="2"/>
</svg>
