<svg width="22" height="17" viewBox="0 0 22 17" fill="none" xmlns="http://www.w3.org/2000/svg">
<g clip-path="url(#clip0_603_1218)">
<path d="M3.99975 16.9155V15.7904C3.99975 15.3589 3.73558 15.0777 3.28277 15.0777C3.05641 15.0777 2.81115 15.1527 2.64134 15.3965C2.50934 15.1902 2.3207 15.0777 2.03771 15.0777C1.84899 15.0777 1.66045 15.1339 1.50945 15.3402V15.1152H1.11328V16.9155H1.50945V15.9216C1.50945 15.6028 1.67927 15.4527 1.94344 15.4527C2.20744 15.4527 2.33961 15.6215 2.33961 15.9216V16.9155H2.73578V15.9216C2.73578 15.6028 2.92433 15.4527 3.16959 15.4527C3.43377 15.4527 3.56577 15.6215 3.56577 15.9216V16.9155H3.99975ZM9.86679 15.1152H9.22544V14.5714H8.82927V15.1152H8.47082V15.4715H8.82918V16.2967C8.82918 16.7093 8.99899 16.953 9.4518 16.953C9.62161 16.953 9.81016 16.8968 9.94233 16.8218L9.82906 16.4842C9.71588 16.5592 9.58388 16.578 9.48952 16.578C9.30089 16.578 9.22544 16.4655 9.22544 16.2779V15.4715H9.86679V15.1152ZM13.2249 15.0776C12.9985 15.0776 12.8476 15.1902 12.7533 15.3402V15.1152H12.3571V16.9155H12.7533V15.9029C12.7533 15.6028 12.8853 15.434 13.1305 15.434C13.206 15.434 13.3003 15.4528 13.3758 15.4715L13.489 15.0965C13.4135 15.0777 13.3003 15.0777 13.2249 15.0777V15.0776ZM8.1501 15.2652C7.96138 15.1339 7.6973 15.0777 7.4143 15.0777C6.96159 15.0777 6.65977 15.3027 6.65977 15.659C6.65977 15.9592 6.88613 16.1279 7.2823 16.1842L7.47094 16.203C7.67848 16.2404 7.79166 16.2967 7.79166 16.3905C7.79166 16.5217 7.64075 16.6155 7.37658 16.6155C7.11249 16.6155 6.90495 16.5217 6.77287 16.428L6.58423 16.728C6.79177 16.878 7.07477 16.953 7.35767 16.953C7.88593 16.953 8.18783 16.7093 8.18783 16.3717C8.18783 16.0529 7.94256 15.8841 7.56521 15.8279L7.37658 15.8091C7.20677 15.7903 7.07477 15.7528 7.07477 15.6403C7.07477 15.509 7.20677 15.434 7.4143 15.434C7.64075 15.434 7.86711 15.5277 7.98029 15.584L8.1501 15.2652ZM18.677 15.0777C18.4506 15.0777 18.2997 15.1902 18.2053 15.3402V15.1152H17.8091V16.9155H18.2053V15.9029C18.2053 15.6028 18.3374 15.434 18.5826 15.434C18.6581 15.434 18.7525 15.4528 18.8279 15.4715L18.9411 15.0965C18.8656 15.0777 18.7525 15.0777 18.677 15.0777ZM13.6211 16.0154C13.6211 16.5592 13.9983 16.953 14.5832 16.953C14.8473 16.953 15.0359 16.8968 15.2246 16.7468L15.0359 16.428C14.885 16.5405 14.7341 16.5967 14.5643 16.5967C14.2436 16.5967 14.0172 16.3717 14.0172 16.0154C14.0172 15.6778 14.2436 15.4527 14.5643 15.434C14.7341 15.434 14.885 15.4902 15.0359 15.6028L15.2246 15.284C15.0359 15.1339 14.8473 15.0777 14.5832 15.0777C13.9983 15.0777 13.6211 15.4715 13.6211 16.0154ZM17.281 16.0154V15.1152H16.8848V15.3402C16.7527 15.1715 16.5641 15.0777 16.3188 15.0777C15.8095 15.0777 15.4133 15.4715 15.4133 16.0154C15.4133 16.5592 15.8095 16.953 16.3188 16.953C16.5829 16.953 16.7716 16.8593 16.8848 16.6905V16.9155H17.281V16.0154ZM15.8283 16.0154C15.8283 15.6966 16.0358 15.434 16.3754 15.434C16.6961 15.434 16.9225 15.6778 16.9225 16.0154C16.9225 16.3342 16.6961 16.5967 16.3754 16.5967C16.0358 16.5779 15.8283 16.3342 15.8283 16.0154ZM11.0931 15.0777C10.5649 15.0777 10.1875 15.4527 10.1875 16.0154C10.1875 16.578 10.5648 16.953 11.1119 16.953C11.376 16.953 11.6402 16.878 11.8477 16.7093L11.659 16.428C11.5081 16.5405 11.3195 16.6155 11.1308 16.6155C10.8856 16.6155 10.6403 16.503 10.5837 16.1841H11.9232V16.0342C11.9421 15.4527 11.6026 15.0777 11.0931 15.0777ZM11.0931 15.4152C11.3383 15.4152 11.5082 15.5653 11.5458 15.8466H10.6026C10.6403 15.6028 10.8101 15.4152 11.0931 15.4152ZM20.922 16.0154V14.4026H20.5258V15.3402C20.3937 15.1715 20.2051 15.0777 19.9598 15.0777C19.4505 15.0777 19.0543 15.4715 19.0543 16.0154C19.0543 16.5592 19.4505 16.953 19.9598 16.953C20.224 16.953 20.4126 16.8593 20.5258 16.6905V16.9155H20.922V16.0154ZM19.4694 16.0154C19.4694 15.6966 19.6768 15.434 20.0164 15.434C20.3372 15.434 20.5635 15.6778 20.5635 16.0154C20.5635 16.3342 20.3372 16.5967 20.0164 16.5967C19.6768 16.5779 19.4694 16.3342 19.4694 16.0154ZM6.22579 16.0154V15.1152H5.82962V15.3402C5.69753 15.1715 5.5089 15.0777 5.26363 15.0777C4.75428 15.0777 4.35811 15.4715 4.35811 16.0154C4.35811 16.5592 4.75428 16.953 5.26363 16.953C5.5278 16.953 5.71644 16.8593 5.82962 16.6905V16.9155H6.22579V16.0154ZM4.75428 16.0154C4.75428 15.6966 4.96182 15.434 5.30136 15.434C5.62208 15.434 5.84852 15.6778 5.84852 16.0154C5.84852 16.3342 5.62208 16.5967 5.30136 16.5967C4.96182 16.5779 4.75428 16.3342 4.75428 16.0154Z" fill="black"/>
<path d="M8.01758 1.44397H13.9602V12.0584H8.01758V1.44397Z" fill="#FF5F00"/>
<path d="M8.39515 6.75122C8.39515 4.59461 9.41385 2.68173 10.9796 1.44397C9.82893 0.543829 8.37633 0 6.79164 0C3.03729 0 0 3.01925 0 6.75122C0 10.4831 3.03729 13.5024 6.79156 13.5024C8.37624 13.5024 9.82885 12.9586 10.9796 12.0584C9.41385 10.8394 8.39515 8.90783 8.39515 6.75122Z" fill="#EB001B"/>
<path d="M21.9782 6.75122C21.9782 10.4831 18.9409 13.5024 15.1866 13.5024C13.6019 13.5024 12.1493 12.9586 10.9985 12.0584C12.5832 10.8207 13.5831 8.90783 13.5831 6.75122C13.5831 4.59461 12.5643 2.68173 10.9985 1.44397C12.1492 0.543829 13.6019 0 15.1866 0C18.9409 0 21.9782 3.03805 21.9782 6.75122Z" fill="#F79E1B"/>
</g>
<defs>
<clipPath id="clip0_603_1218">
<rect width="22" height="17" fill="white"/>
</clipPath>
</defs>
</svg>
