<svg width="127" height="24" viewBox="0 0 127 24" fill="none" xmlns="http://www.w3.org/2000/svg">
<path d="M18.3333 4.84166L18.2333 3.79166L17.2333 4.125C15.5195 4.72045 13.6894 4.90318 11.8917 4.65833C10.0026 4.36517 8.0691 4.62568 6.325 5.40833C5.4004 5.80204 4.58896 6.42076 3.96456 7.20817C3.34017 7.99558 2.92264 8.92667 2.75 9.91666C2.52615 11.1956 2.63814 12.5107 3.075 13.7333C3.3563 13.0984 3.685 12.4856 4.05834 11.9C4.90517 10.654 6.07857 9.66515 7.45 9.04166C8.7712 8.43843 10.2153 8.15304 11.6667 8.20833C10.285 8.41958 8.9625 8.91623 7.78334 9.66666C7.21456 10.024 6.69369 10.4525 6.23334 10.9417C5.79305 11.4306 5.40485 11.964 5.075 12.5333C4.45544 13.7233 4.0146 14.9981 3.76667 16.3167C3.49943 17.6394 3.35437 18.984 3.33334 20.3333H5C5.07833 19.1232 5.24264 17.9202 5.49167 16.7333C6.64786 17.3577 7.94446 17.6761 9.25833 17.6583C10.4837 17.6575 11.6965 17.411 12.825 16.9333C19.1667 14.225 18.3333 5.21666 18.3333 4.84166Z" fill="#0FA958"/>
<path d="M43.3333 4.84166L43.2333 3.79166L42.2333 4.125C40.5195 4.72045 38.6894 4.90318 36.8917 4.65833C35.0026 4.36517 33.0691 4.62568 31.325 5.40833C30.4004 5.80204 29.589 6.42076 28.9646 7.20817C28.3402 7.99558 27.9226 8.92667 27.75 9.91666C27.5262 11.1956 27.6381 12.5107 28.075 13.7333C28.3563 13.0984 28.685 12.4856 29.0583 11.9C29.9052 10.654 31.0786 9.66515 32.45 9.04166C33.7712 8.43843 35.2153 8.15304 36.6667 8.20833C35.285 8.41958 33.9625 8.91623 32.7833 9.66666C32.2146 10.024 31.6937 10.4525 31.2333 10.9417C30.7931 11.4306 30.4049 11.964 30.075 12.5333C29.4554 13.7233 29.0146 14.9981 28.7667 16.3167C28.4994 17.6394 28.3544 18.984 28.3333 20.3333H30C30.0783 19.1232 30.2426 17.9202 30.4917 16.7333C31.6479 17.3577 32.9445 17.6761 34.2583 17.6583C35.4837 17.6575 36.6965 17.411 37.825 16.9333C44.1667 14.225 43.3333 5.21666 43.3333 4.84166Z" fill="#0FA958"/>
<path d="M68.3333 4.84166L68.2333 3.79166L67.2333 4.125C65.5195 4.72045 63.6894 4.90318 61.8917 4.65833C60.0026 4.36517 58.0691 4.62568 56.325 5.40833C55.4004 5.80204 54.589 6.42076 53.9646 7.20817C53.3402 7.99558 52.9226 8.92667 52.75 9.91666C52.5261 11.1956 52.6381 12.5107 53.075 13.7333C53.3563 13.0984 53.685 12.4856 54.0583 11.9C54.9052 10.654 56.0786 9.66515 57.45 9.04166C58.7712 8.43843 60.2153 8.15304 61.6667 8.20833C60.285 8.41958 58.9625 8.91623 57.7833 9.66666C57.2146 10.024 56.6937 10.4525 56.2333 10.9417C55.7931 11.4306 55.4049 11.964 55.075 12.5333C54.4554 13.7233 54.0146 14.9981 53.7667 16.3167C53.4994 17.6394 53.3544 18.984 53.3333 20.3333H55C55.0783 19.1232 55.2426 17.9202 55.4917 16.7333C56.6479 17.3577 57.9445 17.6761 59.2583 17.6583C60.4837 17.6575 61.6965 17.411 62.825 16.9333C69.1667 14.225 68.3333 5.21666 68.3333 4.84166Z" fill="#0FA958"/>
<path d="M96.0006 2.15002L94.857 2.5329C92.8969 3.21684 90.8039 3.42673 88.7479 3.14549C86.5875 2.80877 84.3762 3.10798 82.3816 4.00695C81.3242 4.45917 80.3962 5.16984 79.6821 6.07427C78.968 6.97871 78.4905 8.04817 78.293 9.18529C78.0922 10.2788 78.1127 11.4018 78.3534 12.4872C78.5941 13.5725 79.05 14.5981 79.694 15.5027C79.6368 15.7037 79.5796 15.9047 79.532 16.1057C79.1449 17.7588 78.953 19.4519 78.9601 21.15H80.8662C80.9558 19.76 81.1437 18.3782 81.4285 17.015C82.7508 17.7321 84.2337 18.0979 85.7363 18.0775C87.1377 18.0765 88.5247 17.7934 89.8153 17.2447C97.068 14.1339 96.115 3.7868 96.115 3.35607L96.0006 2.15002ZM89.072 15.4835C86.5845 16.546 83.611 16.3641 81.9432 15.0528C82.2251 14.1062 82.6119 13.1943 83.0964 12.3344C83.473 11.7155 83.9173 11.1408 84.4211 10.6211C84.9358 10.0957 85.5156 9.63895 86.1461 9.26186C87.449 8.47942 88.8939 7.96531 90.3967 7.74952V6.79234C88.6677 6.73223 86.9492 7.08659 85.3837 7.82609C83.783 8.61055 82.4254 9.81842 81.4571 11.3198C81.098 11.8932 80.7795 12.4913 80.5041 13.1097C80.0624 11.9748 79.9372 10.7405 80.1419 9.53944C80.2761 8.6986 80.6212 7.9059 81.1448 7.23606C81.6683 6.56621 82.3531 6.04128 83.1345 5.71073C84.274 5.17582 85.5173 4.90122 86.7751 4.9067C87.366 4.9067 87.9474 4.96413 88.5573 5.01199C90.4675 5.25952 92.407 5.14589 94.2756 4.67698C94.2089 7.31879 93.7324 13.4926 89.072 15.4835Z" fill="#0FA958"/>
<path d="M124.001 2.15002L122.857 2.5329C120.897 3.21684 118.804 3.42673 116.748 3.14549C114.588 2.80877 112.376 3.10798 110.382 4.00695C109.324 4.45917 108.396 5.16984 107.682 6.07427C106.968 6.97871 106.49 8.04817 106.293 9.18529C106.092 10.2788 106.113 11.4018 106.353 12.4872C106.594 13.5725 107.05 14.5981 107.694 15.5027C107.637 15.7037 107.58 15.9047 107.532 16.1057C107.145 17.7588 106.953 19.4519 106.96 21.15H108.866C108.956 19.76 109.144 18.3782 109.429 17.015C110.751 17.7321 112.234 18.0979 113.736 18.0775C115.138 18.0765 116.525 17.7934 117.815 17.2447C125.068 14.1339 124.115 3.7868 124.115 3.35607L124.001 2.15002ZM117.072 15.4835C114.585 16.546 111.611 16.3641 109.943 15.0528C110.225 14.1062 110.612 13.1943 111.096 12.3344C111.473 11.7155 111.917 11.1408 112.421 10.6211C112.936 10.0957 113.516 9.63895 114.146 9.26186C115.449 8.47942 116.894 7.96531 118.397 7.74952V6.79234C116.668 6.73223 114.949 7.08659 113.384 7.82609C111.783 8.61055 110.425 9.81842 109.457 11.3198C109.098 11.8932 108.78 12.4913 108.504 13.1097C108.062 11.9748 107.937 10.7405 108.142 9.53944C108.276 8.6986 108.621 7.9059 109.145 7.23606C109.668 6.56621 110.353 6.04128 111.134 5.71073C112.274 5.17582 113.517 4.90122 114.775 4.9067C115.366 4.9067 115.947 4.96413 116.557 5.01199C118.468 5.25952 120.407 5.14589 122.276 4.67698C122.209 7.31879 121.732 13.4926 117.072 15.4835Z" fill="#0FA958"/>
</svg>
