<svg width="71" height="17" viewBox="0 0 71 17" fill="none" xmlns="http://www.w3.org/2000/svg">
<g clip-path="url(#clip0_1_5)">
<path d="M13.9637 5.1841C13.9483 6.57157 15.0462 7.34578 15.8732 7.80615C16.7228 8.27843 17.0082 8.58133 17.0048 9.00374C16.9985 9.65012 16.3271 9.93542 15.6988 9.94651C14.6027 9.9659 13.9653 9.60843 13.4587 9.33807L13.0638 11.4488C13.5721 11.7164 14.5134 11.9498 15.4896 11.96C17.7809 11.96 19.2799 10.668 19.288 8.6647C19.297 6.12229 16.2096 5.98157 16.2307 4.84518C16.238 4.5006 16.5258 4.13289 17.1565 4.0394C17.4687 3.99217 18.3305 3.95602 19.3075 4.47L19.691 2.42783C19.1656 2.20928 18.4903 2 17.6495 2C15.4928 2 13.976 3.30964 13.9637 5.1841ZM23.3759 2.1759C22.9575 2.1759 22.6049 2.4547 22.4475 2.88253L19.1745 11.81H21.4642L21.9198 10.3716H24.7177L24.982 11.81H27L25.239 2.1759H23.3759ZM23.6962 4.77843L24.357 8.39615H22.5473L23.6962 4.77843ZM11.1877 2.17602L9.38292 11.8099H11.5648L13.3687 2.17578H11.1877M7.96004 2.17578L5.68909 8.73325L4.77046 3.15771C4.66267 2.5353 4.237 2.1759 3.76429 2.1759H0.0519961L0 2.45566C0.762117 2.64458 1.62802 2.94928 2.15262 3.2753C2.47366 3.47446 2.56521 3.64855 2.67068 4.12181L4.4106 11.81H6.71625L10.2511 2.1759L7.96004 2.17578Z" fill="url(#paint0_linear_1_5)"/>
</g>
<g clip-path="url(#clip1_1_5)">
<path d="M34.9995 16.9155V15.7904C34.9995 15.3589 34.7354 15.0777 34.2826 15.0777C34.0562 15.0777 33.8109 15.1527 33.6411 15.3965C33.5091 15.1902 33.3205 15.0777 33.0375 15.0777C32.8488 15.0777 32.6602 15.1339 32.5092 15.3402V15.1152H32.1131V16.9155H32.5092V15.9216C32.5092 15.6028 32.679 15.4527 32.9432 15.4527C33.2072 15.4527 33.3394 15.6215 33.3394 15.9216V16.9155H33.7356V15.9216C33.7356 15.6028 33.9241 15.4527 34.1694 15.4527C34.4335 15.4527 34.5655 15.6215 34.5655 15.9216V16.9155H34.9995ZM40.8666 15.1152H40.2252V14.5714H39.829V15.1152H39.4706V15.4715H39.829V16.2967C39.829 16.7093 39.9988 16.953 40.4516 16.953C40.6214 16.953 40.8099 16.8968 40.9421 16.8218L40.8288 16.4842C40.7157 16.5592 40.5837 16.578 40.4893 16.578C40.3007 16.578 40.2252 16.4655 40.2252 16.2779V15.4715H40.8666V15.1152ZM44.2247 15.0776C43.9983 15.0776 43.8474 15.1902 43.753 15.3402V15.1152H43.3569V16.9155H43.753V15.9029C43.753 15.6028 43.885 15.434 44.1303 15.434C44.2058 15.434 44.3001 15.4528 44.3756 15.4715L44.4888 15.0965C44.4133 15.0777 44.3001 15.0777 44.2247 15.0777V15.0776ZM39.1499 15.2652C38.9612 15.1339 38.6971 15.0777 38.4141 15.0777C37.9614 15.0777 37.6596 15.3027 37.6596 15.659C37.6596 15.9592 37.8859 16.1279 38.2821 16.1842L38.4707 16.203C38.6783 16.2404 38.7914 16.2967 38.7914 16.3905C38.7914 16.5217 38.6405 16.6155 38.3764 16.6155C38.1123 16.6155 37.9047 16.5217 37.7726 16.428L37.584 16.728C37.7916 16.878 38.0745 16.953 38.3575 16.953C38.8857 16.953 39.1876 16.7093 39.1876 16.3717C39.1876 16.0529 38.9423 15.8841 38.565 15.8279L38.3764 15.8091C38.2065 15.7903 38.0745 15.7528 38.0745 15.6403C38.0745 15.509 38.2065 15.434 38.4141 15.434C38.6405 15.434 38.8669 15.5277 38.9801 15.584L39.1499 15.2652ZM49.6768 15.0777C49.4504 15.0777 49.2994 15.1902 49.2051 15.3402V15.1152H48.8089V16.9155H49.2051V15.9029C49.2051 15.6028 49.3372 15.434 49.5824 15.434C49.6579 15.434 49.7522 15.4528 49.8277 15.4715L49.9409 15.0965C49.8654 15.0777 49.7523 15.0777 49.6768 15.0777ZM44.6208 16.0154C44.6208 16.5592 44.9981 16.953 45.583 16.953C45.8471 16.953 46.0357 16.8968 46.2243 16.7468L46.0357 16.428C45.8848 16.5405 45.7339 16.5967 45.5641 16.5967C45.2434 16.5967 45.017 16.3717 45.017 16.0154C45.017 15.6778 45.2434 15.4527 45.5641 15.434C45.7339 15.434 45.8848 15.4902 46.0357 15.6028L46.2243 15.284C46.0357 15.1339 45.8471 15.0777 45.583 15.0777C44.9981 15.0777 44.6208 15.4715 44.6208 16.0154ZM48.2807 16.0154V15.1152H47.8846V15.3402C47.7525 15.1715 47.5639 15.0777 47.3186 15.0777C46.8092 15.0777 46.4131 15.4715 46.4131 16.0154C46.4131 16.5592 46.8092 16.953 47.3186 16.953C47.5827 16.953 47.7714 16.8593 47.8846 16.6905V16.9155H48.2807V16.0154ZM46.8281 16.0154C46.8281 15.6966 47.0356 15.434 47.3751 15.434C47.6959 15.434 47.9223 15.6778 47.9223 16.0154C47.9223 16.3342 47.6959 16.5967 47.3751 16.5967C47.0356 16.5779 46.8281 16.3342 46.8281 16.0154ZM42.0929 15.0777C41.5646 15.0777 41.1873 15.4527 41.1873 16.0154C41.1873 16.578 41.5646 16.953 42.1117 16.953C42.3758 16.953 42.64 16.878 42.8475 16.7093L42.6588 16.428C42.5079 16.5405 42.3193 16.6155 42.1306 16.6155C41.8854 16.6155 41.6401 16.503 41.5835 16.1841H42.923V16.0342C42.9419 15.4527 42.6023 15.0777 42.0929 15.0777ZM42.0929 15.4152C42.3381 15.4152 42.508 15.5653 42.5456 15.8466H41.6024C41.6401 15.6028 41.8099 15.4152 42.0929 15.4152ZM51.9217 16.0154V14.4026H51.5256V15.3402C51.3935 15.1715 51.2049 15.0777 50.9596 15.0777C50.4502 15.0777 50.0541 15.4715 50.0541 16.0154C50.0541 16.5592 50.4502 16.953 50.9596 16.953C51.2238 16.953 51.4124 16.8593 51.5256 16.6905V16.9155H51.9217V16.0154ZM50.4691 16.0154C50.4691 15.6966 50.6766 15.434 51.0162 15.434C51.3369 15.434 51.5633 15.6778 51.5633 16.0154C51.5633 16.3342 51.3369 16.5967 51.0162 16.5967C50.6766 16.5779 50.4691 16.3342 50.4691 16.0154ZM37.2256 16.0154V15.1152H36.8294V15.3402C36.6973 15.1715 36.5087 15.0777 36.2634 15.0777C35.7541 15.0777 35.3579 15.4715 35.3579 16.0154C35.3579 16.5592 35.7541 16.953 36.2634 16.953C36.5276 16.953 36.7162 16.8593 36.8294 16.6905V16.9155H37.2256V16.0154ZM35.7541 16.0154C35.7541 15.6966 35.9616 15.434 36.3011 15.434C36.6219 15.434 36.8483 15.6778 36.8483 16.0154C36.8483 16.3342 36.6219 16.5967 36.3011 16.5967C35.9616 16.5779 35.7541 16.3342 35.7541 16.0154Z" fill="black"/>
<path d="M39.0178 1.44397H44.9604V12.0584H39.0178V1.44397Z" fill="#FF5F00"/>
<path d="M39.3951 6.75122C39.3951 4.59461 40.4139 2.68173 41.9796 1.44397C40.8289 0.543829 39.3763 0 37.7916 0C34.0373 0 31 3.01925 31 6.75122C31 10.4831 34.0373 13.5024 37.7916 13.5024C39.3762 13.5024 40.8288 12.9586 41.9796 12.0584C40.4139 10.8394 39.3951 8.90783 39.3951 6.75122Z" fill="#EB001B"/>
<path d="M52.9782 6.75122C52.9782 10.4831 49.9409 13.5024 46.1866 13.5024C44.6019 13.5024 43.1493 12.9586 41.9985 12.0584C43.5832 10.8207 44.5831 8.90783 44.5831 6.75122C44.5831 4.59461 43.5643 2.68173 41.9985 1.44397C43.1492 0.543829 44.6019 0 46.1866 0C49.9409 0 52.9782 3.03805 52.9782 6.75122Z" fill="#F79E1B"/>
</g>
<g clip-path="url(#clip2_1_5)">
<path d="M69.9333 12.0001H56.0667C55.7838 12.0001 55.5125 11.8842 55.3124 11.6779C55.1124 11.4716 55 11.1918 55 10.9001V6.27275H55.7684L55.9418 5.84008H56.3298L56.5027 6.27092H58.0147V5.94321L58.1498 6.27321H58.9347L59.0698 5.93771V6.27229H62.8267V5.56462H62.8978C62.9484 5.56646 62.9631 5.57104 62.9631 5.65812V6.27321H64.9067V6.10867C65.1053 6.21271 65.3396 6.27367 65.588 6.27367L65.6302 6.27321H65.628H66.4458L66.6209 5.84237H67.0089L67.18 6.27321H68.756V5.86346L68.9942 6.27321H70.2547V3.56721H69.0071V3.88667L68.8324 3.56721H67.5498V3.88667L67.3893 3.56721H65.6573C65.3949 3.55353 65.1335 3.60922 64.8978 3.729L64.9071 3.72488V3.56721H63.7124V3.72488C63.5678 3.60734 63.3852 3.55111 63.2018 3.56767H63.2044H58.8387L58.5458 4.26662L58.2449 3.56767H56.8698V3.88713L56.7182 3.56767H55.5449L55.0013 4.851V2.101C55.0013 1.80926 55.1137 1.52947 55.3138 1.32318C55.5138 1.11689 55.7851 1.001 56.068 1.001H69.9347C70.2176 1.001 70.4889 1.11689 70.6889 1.32318C70.889 1.52947 71.0013 1.80926 71.0013 2.101V6.90433H70.1689C70.1556 6.90342 70.1396 6.90342 70.124 6.90342C69.9311 6.90342 69.752 6.963 69.6027 7.06521L69.6062 7.06292V6.90433H68.3751C68.1828 6.89337 67.9925 6.94974 67.8351 7.06429L67.8378 7.06246V6.90387H65.6396V7.06246C65.4596 6.9578 65.2564 6.90316 65.0498 6.90387H65.0324H65.0333H63.5831V7.06246C63.3936 6.9373 63.1688 6.8816 62.9449 6.90433L62.9489 6.90387H61.3262L60.9547 7.31821L60.6071 6.90387H58.1831V9.61171H60.5618L60.9444 9.19096L61.3049 9.61171H62.7711V8.97783H62.9756C63.1721 8.98576 63.3682 8.9519 63.5516 8.87837L63.5418 8.88204V9.61262H64.7507V8.90725H64.8089C64.8827 8.90725 64.8902 8.91 64.8902 8.987V9.61308H68.564L68.6089 9.614C68.8196 9.614 69.016 9.54892 69.1796 9.43754L69.1756 9.43983V9.61308H70.3409L70.3964 9.614C70.6147 9.614 70.8222 9.56771 71.0107 9.48383L71.0004 9.48796V10.9005C71.0004 11.1923 70.8881 11.4721 70.688 11.6784C70.488 11.8846 70.2167 12.0005 69.9338 12.0005L69.9333 12.0001ZM64.38 9.23221H63.9276V7.29117H64.9658C65.1533 7.27324 65.3421 7.30577 65.5138 7.38558L65.5067 7.38283C65.6458 7.46167 65.7387 7.612 65.7387 7.78433L65.7378 7.81504V7.81367L65.7382 7.83108C65.7382 8.05383 65.608 8.24542 65.4213 8.32883L65.4178 8.33021C65.5071 8.36321 65.5818 8.41958 65.6373 8.49246L65.6382 8.49338C65.701 8.60049 65.7272 8.72615 65.7129 8.85042L65.7133 8.84767V9.23175H65.2618V8.98883C65.2832 8.85658 65.2574 8.72081 65.1893 8.60658L65.1907 8.60887C65.1438 8.57215 65.0901 8.54562 65.033 8.53089C64.9758 8.51616 64.9164 8.51353 64.8582 8.52317L64.8609 8.52271H64.38V9.23175V9.23221ZM64.38 7.69221V8.12808H64.9267C65.0039 8.13544 65.0816 8.12119 65.1516 8.08683L65.1489 8.08821C65.1775 8.06916 65.201 8.04304 65.2173 8.01222C65.2336 7.9814 65.2422 7.94686 65.2422 7.91175L65.2418 7.90121C65.244 7.86618 65.2365 7.83168 65.2202 7.80085C65.2039 7.77002 65.1795 7.74459 65.1498 7.7275L65.1489 7.72704C65.0814 7.69593 65.0073 7.68331 64.9338 7.69038H64.9356L64.38 7.69221ZM60.3689 9.23175H58.588V7.29117H60.3969L60.9502 7.92733L61.5222 7.29117H62.9591C63.4693 7.29117 63.7173 7.50063 63.7173 7.93054C63.7173 8.36825 63.4609 8.58092 62.9351 8.58092H62.3729V9.23129H61.4987L60.9449 8.59008L60.3693 9.23175H60.3689ZM61.9249 7.49925L61.2342 8.26467L61.9249 9.05483V7.49925ZM59.0364 8.44112V8.82704H60.1422L60.6533 8.25779L60.1618 7.69221H59.036V8.04513H60.0236V8.44067L59.0364 8.44112ZM62.3729 7.69267V8.18675H62.9538C63.1316 8.18675 63.2338 8.09325 63.2338 7.93008C63.2338 7.77425 63.1387 7.69221 62.9587 7.69221L62.3729 7.69267ZM70.3898 9.23267H69.5213V8.81558H70.3862C70.4509 8.82478 70.5166 8.80733 70.5689 8.767L70.5684 8.76746C70.5851 8.75148 70.5985 8.73212 70.6076 8.71059C70.6167 8.68906 70.6214 8.66582 70.6213 8.64233V8.635C70.6214 8.6118 70.6165 8.58887 70.6071 8.56782C70.5976 8.54676 70.5838 8.52808 70.5667 8.51308C70.5207 8.4788 70.4639 8.46344 70.4076 8.47H70.4084L70.3253 8.46725C69.9191 8.45625 69.4591 8.44342 69.4591 7.86913C69.4591 7.58954 69.6289 7.29117 70.104 7.29117H71.0004V7.70458H70.1804C70.1171 7.69727 70.0531 7.7104 69.9973 7.74217L69.9991 7.74125C69.9772 7.75614 69.9595 7.77686 69.948 7.80121C69.9365 7.82557 69.9316 7.85267 69.9338 7.87967V7.87921V7.88425C69.9338 7.91513 69.9432 7.94523 69.9608 7.97025C69.9783 7.99527 70.0031 8.01393 70.0316 8.02358L70.0324 8.02404C70.0888 8.04196 70.1478 8.04941 70.2067 8.04604H70.2053L70.4493 8.05246C70.6333 8.03353 70.817 8.09 70.9609 8.20967L70.9596 8.20875C70.9729 8.21975 70.9844 8.23167 70.9947 8.24496L70.9951 8.24542L71.0004 8.98425C70.9257 9.07432 70.8306 9.14404 70.7236 9.18729C70.6166 9.23053 70.5008 9.24595 70.3867 9.23221L70.3898 9.23267ZM68.6347 9.23267H67.7582V8.81558H68.6302C68.6955 8.82439 68.7615 8.807 68.8147 8.767L68.8138 8.76746C68.8304 8.75143 68.8436 8.73204 68.8526 8.71052C68.8616 8.68899 68.8663 8.66578 68.8662 8.64233V8.63775C68.8662 8.61416 68.8613 8.59085 68.8519 8.56935C68.8425 8.54786 68.8287 8.52868 68.8116 8.51308C68.7647 8.47877 68.7073 8.46343 68.6502 8.47H68.6511L68.5684 8.46725C68.1636 8.45625 67.704 8.44342 67.704 7.86913C67.704 7.58954 67.8729 7.29117 68.3471 7.29117H69.2484V7.70458H68.4236C68.3606 7.69735 68.2971 7.71048 68.2418 7.74217L68.2436 7.74125C68.2202 7.75782 68.2016 7.78058 68.1898 7.80714C68.178 7.83369 68.1733 7.86305 68.1763 7.89211C68.1793 7.92117 68.1899 7.94886 68.2069 7.97224C68.2239 7.99563 68.2467 8.01384 68.2729 8.02496L68.2738 8.02542C68.3309 8.04347 68.3906 8.05092 68.4502 8.04742H68.4489L68.6911 8.05383C68.876 8.03546 69.0606 8.09201 69.2058 8.2115L69.2044 8.21012C69.2533 8.26565 69.2904 8.33102 69.3135 8.40209C69.3366 8.47317 69.3452 8.54842 69.3387 8.62308V8.62079C69.34 9.0255 69.1022 9.23175 68.6333 9.23175L68.6347 9.23267ZM67.4889 9.23267H65.9867V7.29071H67.4876V7.69175H66.4356V8.04467H67.4631V8.44021H66.4356V8.82613L67.4889 8.82796V9.23129V9.23267ZM68.3644 5.89325H67.4484L67.2733 5.46058H66.3391L66.1693 5.89325H65.6431C65.4068 5.9061 65.1741 5.82931 64.9889 5.67737L64.9911 5.67875C64.9031 5.57861 64.8363 5.46066 64.795 5.33243C64.7537 5.20419 64.7387 5.06849 64.7511 4.93396L64.7507 4.93762C64.7392 4.80062 64.7549 4.66265 64.7968 4.53209C64.8386 4.40153 64.9058 4.28112 64.9942 4.17817L64.9933 4.17908C65.0867 4.09493 65.1958 4.03148 65.3139 3.99268C65.4321 3.95389 65.5567 3.94058 65.68 3.95358L65.6764 3.95312H66.112V4.367H65.6853C65.6229 4.35871 65.5595 4.36472 65.4995 4.3846C65.4396 4.40449 65.3847 4.43776 65.3387 4.48204L65.3391 4.48158C65.2441 4.60708 65.198 4.76466 65.2098 4.92342V4.92113C65.1956 5.08423 65.2401 5.24702 65.3347 5.37854L65.3333 5.37671C65.4217 5.45117 65.5348 5.48703 65.6484 5.47662H65.6467H65.8484L66.4844 3.95038H67.16L67.9213 5.78371V3.95038H68.6062L69.3964 5.30154V3.95038H69.8587V5.89004H69.2169L68.3636 4.43346V5.89004L68.3644 5.89325ZM66.8093 4.28083L66.4996 5.0545H67.1204L66.8093 4.28083ZM62.4542 5.89233H62.0044V3.95175H63.0391C63.228 3.93154 63.4186 3.96465 63.5907 4.04754L63.584 4.04479C63.6532 4.08424 63.7108 4.14207 63.751 4.21227C63.7912 4.28247 63.8124 4.36249 63.8124 4.444L63.8116 4.47608V4.47471V4.48892C63.8116 4.59477 63.782 4.69839 63.7263 4.78733C63.6707 4.87627 63.5913 4.94676 63.4978 4.99033L63.4942 4.99171C63.5836 5.02654 63.6587 5.08246 63.716 5.15396L63.7169 5.15487C63.7803 5.26239 63.8065 5.38891 63.7911 5.51375L63.7916 5.511V5.89188H63.3378L63.336 5.64713V5.61046C63.3521 5.49079 63.3265 5.3691 63.2636 5.26717L63.2649 5.26946C63.2178 5.2338 63.1644 5.2081 63.1076 5.19386C63.0508 5.17963 62.9919 5.17712 62.9342 5.1865L62.9369 5.18604H62.4547V5.89188L62.4542 5.89233ZM62.4542 4.35554V4.78638H63C63.0771 4.795 63.155 4.78069 63.2244 4.74512L63.2222 4.74604C63.2507 4.72819 63.2742 4.70309 63.2906 4.67315C63.3069 4.64321 63.3155 4.60944 63.3156 4.57508L63.3151 4.56225C63.3174 4.52742 63.3097 4.49314 63.293 4.46276C63.2764 4.43238 63.2514 4.40769 63.2213 4.39175L63.2204 4.39129C63.1528 4.36137 63.0792 4.34879 63.0058 4.35462H63.0071L62.4542 4.35554ZM57.6916 5.89233H56.7778L56.6049 5.45967H55.668L55.4938 5.89233H55.0049L55.8107 3.95175H56.4787L57.2436 5.78829V3.95175H57.9773L58.5658 5.26762L59.1067 3.95175H59.8556V5.89142H59.3933L59.3924 4.37342L58.7404 5.89188H58.3458L57.692 4.37112V5.89188L57.6916 5.89233ZM56.1342 4.28083L55.828 5.0545H56.4422L56.1342 4.28083ZM64.5289 5.89188H64.0702V3.95175H64.5293V5.89142L64.5289 5.89188ZM61.6907 5.89188H60.1911V3.95175H61.6933V4.35508H60.6409V4.70479H61.668V5.10308H60.64V5.49083H61.6924V5.89142L61.6907 5.89188Z" fill="#006BA6"/>
</g>
<defs>
<linearGradient id="paint0_linear_1_5" x1="1241.3" y1="31.9398" x2="1274.22" y2="-990.719" gradientUnits="userSpaceOnUse">
<stop stop-color="#222357"/>
<stop offset="1" stop-color="#254AA5"/>
</linearGradient>
<clipPath id="clip0_1_5">
<rect width="27" height="10" fill="white" transform="translate(0 2)"/>
</clipPath>
<clipPath id="clip1_1_5">
<rect width="22" height="17" fill="white" transform="translate(31)"/>
</clipPath>
<clipPath id="clip2_1_5">
<rect width="16" height="11" fill="white" transform="translate(55 1)"/>
</clipPath>
</defs>
</svg>
