<svg width="18" height="17" viewBox="0 0 18 17" fill="none" xmlns="http://www.w3.org/2000/svg">
<path fill-rule="evenodd" clip-rule="evenodd" d="M8.24927 1.41667C7.17105 1.41678 6.10855 1.66083 5.15071 2.1284C4.19286 2.59596 3.36756 3.27343 2.74387 4.1041C2.12018 4.93476 1.71627 5.89445 1.56593 6.90282C1.4156 7.91119 1.52323 8.9389 1.8798 9.89992C2.23637 10.8609 2.83152 11.7273 3.61542 12.4265C4.39932 13.1257 5.34916 13.6373 6.38542 13.9186C7.42169 14.1999 8.51423 14.2427 9.57158 14.0433C10.6289 13.8439 11.6203 13.4082 12.4628 12.7727L15.219 15.3758C15.3605 15.5048 15.5499 15.5762 15.7466 15.5746C15.9432 15.573 16.1313 15.4985 16.2704 15.3672C16.4094 15.2358 16.4883 15.0582 16.49 14.8725C16.4917 14.6867 16.4161 14.5078 16.2795 14.3742L13.5233 11.7711C14.3168 10.8332 14.8137 9.70267 14.9569 8.50976C15.1001 7.31684 14.8837 6.10998 14.3326 5.0281C13.7816 3.94622 12.9183 3.03328 11.842 2.39437C10.7658 1.75547 9.52045 1.41656 8.24927 1.41667ZM3.74927 7.79167C3.74927 7.23355 3.86567 6.6809 4.09181 6.16526C4.31796 5.64963 4.64943 5.18111 5.06729 4.78646C5.48515 4.39181 5.98123 4.07876 6.52719 3.86518C7.07316 3.6516 7.65832 3.54167 8.24927 3.54167C8.84022 3.54167 9.42538 3.6516 9.97135 3.86518C10.5173 4.07876 11.0134 4.39181 11.4313 4.78646C11.8491 5.18111 12.1806 5.64963 12.4067 6.16526C12.6329 6.6809 12.7493 7.23355 12.7493 7.79167C12.7493 8.91884 12.2752 9.99984 11.4313 10.7969C10.5873 11.5939 9.44274 12.0417 8.24927 12.0417C7.0558 12.0417 5.9112 11.5939 5.06729 10.7969C4.22338 9.99984 3.74927 8.91884 3.74927 7.79167Z" fill="#CCCCCC"/>
</svg>
