<svg width="36" height="27" viewBox="0 0 36 27" fill="none" xmlns="http://www.w3.org/2000/svg">
<path d="M2 5H3.30616C3.55218 5 3.67519 5 3.77418 5.04524C3.86142 5.08511 3.93535 5.14922 3.98715 5.22995C4.04593 5.32154 4.06333 5.44332 4.09812 5.68686L4.57143 9M4.57143 9L5.62332 16.7314C5.75681 17.7125 5.82355 18.2031 6.0581 18.5723C6.26478 18.8977 6.56108 19.1564 6.91135 19.3174C7.30886 19.5 7.80394 19.5 8.79411 19.5H17.352C18.2945 19.5 18.7658 19.5 19.151 19.3304C19.4905 19.1809 19.7818 18.9398 19.9923 18.6342C20.2309 18.2876 20.3191 17.8247 20.4955 16.8988L21.8191 9.94969C21.8812 9.62381 21.9122 9.46087 21.8672 9.3335C21.8278 9.22177 21.7499 9.12768 21.6475 9.06802C21.5308 9 21.365 9 21.0332 9H4.57143ZM10 24C10 24.5523 9.55228 25 9 25C8.44772 25 8 24.5523 8 24C8 23.4477 8.44772 23 9 23C9.55228 23 10 23.4477 10 24ZM18 24C18 24.5523 17.5523 25 17 25C16.4477 25 16 24.5523 16 24C16 23.4477 16.4477 23 17 23C17.5523 23 18 23.4477 18 24Z" stroke="black" stroke-width="2" stroke-linecap="round" stroke-linejoin="round"/>
<path d="M29.0003 3.125V11.875M24.917 7.5H33.0837" stroke="black" stroke-width="2" stroke-linecap="round" stroke-linejoin="round"/>
</svg>
