<svg width="125" height="24" viewBox="0 0 125 24" fill="none" xmlns="http://www.w3.org/2000/svg">
<path d="M18.3333 4.84167L18.2333 3.79167L17.2333 4.125C15.5195 4.72045 13.6894 4.90318 11.8917 4.65833C10.0026 4.36518 8.0691 4.62568 6.325 5.40833C5.4004 5.80204 4.58896 6.42076 3.96456 7.20817C3.34017 7.99559 2.92264 8.92667 2.75 9.91667C2.52615 11.1956 2.63814 12.5107 3.075 13.7333C3.3563 13.0984 3.685 12.4856 4.05834 11.9C4.90517 10.654 6.07857 9.66515 7.45 9.04167C8.7712 8.43844 10.2153 8.15304 11.6667 8.20833C10.285 8.41958 8.9625 8.91624 7.78334 9.66667C7.21456 10.024 6.69369 10.4525 6.23334 10.9417C5.79305 11.4306 5.40485 11.964 5.075 12.5333C4.45544 13.7233 4.0146 14.9981 3.76667 16.3167C3.49943 17.6394 3.35437 18.984 3.33334 20.3333H5C5.07833 19.1232 5.24264 17.9202 5.49167 16.7333C6.64786 17.3577 7.94446 17.6761 9.25833 17.6583C10.4837 17.6575 11.6965 17.411 12.825 16.9333C19.1667 14.225 18.3333 5.21667 18.3333 4.84167Z" fill="#0FA958"/>
<path d="M43.3333 4.84167L43.2333 3.79167L42.2333 4.125C40.5195 4.72045 38.6894 4.90318 36.8917 4.65833C35.0026 4.36518 33.0691 4.62568 31.325 5.40833C30.4004 5.80204 29.589 6.42076 28.9646 7.20817C28.3402 7.99559 27.9226 8.92667 27.75 9.91667C27.5262 11.1956 27.6381 12.5107 28.075 13.7333C28.3563 13.0984 28.685 12.4856 29.0583 11.9C29.9052 10.654 31.0786 9.66515 32.45 9.04167C33.7712 8.43844 35.2153 8.15304 36.6667 8.20833C35.285 8.41958 33.9625 8.91624 32.7833 9.66667C32.2146 10.024 31.6937 10.4525 31.2333 10.9417C30.7931 11.4306 30.4049 11.964 30.075 12.5333C29.4554 13.7233 29.0146 14.9981 28.7667 16.3167C28.4994 17.6394 28.3544 18.984 28.3333 20.3333H30C30.0783 19.1232 30.2426 17.9202 30.4917 16.7333C31.6479 17.3577 32.9445 17.6761 34.2583 17.6583C35.4837 17.6575 36.6965 17.411 37.825 16.9333C44.1667 14.225 43.3333 5.21667 43.3333 4.84167Z" fill="#0FA958"/>
<path d="M68.3333 4.84167L68.2333 3.79167L67.2333 4.125C65.5195 4.72045 63.6894 4.90318 61.8917 4.65833C60.0026 4.36518 58.0691 4.62568 56.325 5.40833C55.4004 5.80204 54.589 6.42076 53.9646 7.20817C53.3402 7.99559 52.9226 8.92667 52.75 9.91667C52.5261 11.1956 52.6381 12.5107 53.075 13.7333C53.3563 13.0984 53.685 12.4856 54.0583 11.9C54.9052 10.654 56.0786 9.66515 57.45 9.04167C58.7712 8.43844 60.2153 8.15304 61.6667 8.20833C60.285 8.41958 58.9625 8.91624 57.7833 9.66667C57.2146 10.024 56.6937 10.4525 56.2333 10.9417C55.7931 11.4306 55.4049 11.964 55.075 12.5333C54.4554 13.7233 54.0146 14.9981 53.7667 16.3167C53.4994 17.6394 53.3544 18.984 53.3333 20.3333H55C55.0783 19.1232 55.2426 17.9202 55.4917 16.7333C56.6479 17.3577 57.9445 17.6761 59.2583 17.6583C60.4837 17.6575 61.6965 17.411 62.825 16.9333C69.1667 14.225 68.3333 5.21667 68.3333 4.84167Z" fill="#0FA958"/>
<path d="M93.3333 4.84167L93.2333 3.79167L92.2333 4.125C90.5195 4.72045 88.6894 4.90318 86.8917 4.65833C85.0026 4.36518 83.0691 4.62568 81.325 5.40833C80.4004 5.80204 79.589 6.42076 78.9646 7.20817C78.3402 7.99559 77.9226 8.92667 77.75 9.91667C77.5261 11.1956 77.6381 12.5107 78.075 13.7333C78.3563 13.0984 78.685 12.4856 79.0583 11.9C79.9052 10.654 81.0786 9.66515 82.45 9.04167C83.7712 8.43844 85.2153 8.15304 86.6667 8.20833C85.285 8.41958 83.9625 8.91624 82.7833 9.66667C82.2146 10.024 81.6937 10.4525 81.2333 10.9417C80.7931 11.4306 80.4049 11.964 80.075 12.5333C79.4554 13.7233 79.0146 14.9981 78.7667 16.3167C78.4994 17.6394 78.3544 18.984 78.3333 20.3333H80C80.0783 19.1232 80.2426 17.9202 80.4917 16.7333C81.6479 17.3577 82.9445 17.6761 84.2583 17.6583C85.4837 17.6575 86.6965 17.411 87.825 16.9333C94.1667 14.225 93.3333 5.21667 93.3333 4.84167Z" fill="#0FA958"/>
<path d="M122.001 2.15002L120.857 2.5329C118.897 3.21684 116.804 3.42673 114.748 3.14549C112.588 2.80877 110.376 3.10798 108.382 4.00695C107.324 4.45917 106.396 5.16984 105.682 6.07427C104.968 6.97871 104.49 8.04817 104.293 9.18529C104.092 10.2788 104.113 11.4018 104.353 12.4872C104.594 13.5725 105.05 14.5981 105.694 15.5027C105.637 15.7037 105.58 15.9047 105.532 16.1057C105.145 17.7588 104.953 19.4519 104.96 21.15H106.866C106.956 19.76 107.144 18.3782 107.429 17.015C108.751 17.7321 110.234 18.0979 111.736 18.0775C113.138 18.0765 114.525 17.7934 115.815 17.2447C123.068 14.1339 122.115 3.7868 122.115 3.35607L122.001 2.15002ZM115.072 15.4835C112.585 16.546 109.611 16.3641 107.943 15.0528C108.225 14.1062 108.612 13.1943 109.096 12.3344C109.473 11.7155 109.917 11.1408 110.421 10.6211C110.936 10.0957 111.516 9.63895 112.146 9.26186C113.449 8.47942 114.894 7.96531 116.397 7.74952V6.79234C114.668 6.73223 112.949 7.08659 111.384 7.82609C109.783 8.61055 108.425 9.81842 107.457 11.3198C107.098 11.8932 106.78 12.4913 106.504 13.1097C106.062 11.9748 105.937 10.7405 106.142 9.53944C106.276 8.6986 106.621 7.9059 107.145 7.23606C107.668 6.56621 108.353 6.04128 109.134 5.71073C110.274 5.17582 111.517 4.90122 112.775 4.9067C113.366 4.9067 113.947 4.96413 114.557 5.01199C116.468 5.25952 118.407 5.14589 120.276 4.67698C120.209 7.31879 119.732 13.4926 115.072 15.4835Z" fill="#0FA958"/>
<path d="M122.001 2.15002L120.857 2.5329C118.897 3.21684 116.804 3.42673 114.748 3.14549C112.588 2.80877 110.376 3.10798 108.382 4.00695C107.324 4.45917 106.396 5.16984 105.682 6.07427C104.968 6.97871 104.49 8.04817 104.293 9.18529C104.092 10.2788 104.113 11.4018 104.353 12.4872C104.594 13.5725 105.05 14.5981 105.694 15.5027C105.637 15.7037 105.58 15.9047 105.532 16.1057C105.145 17.7588 104.953 19.4519 104.96 21.15H106.866C106.956 19.76 107.144 18.3782 107.429 17.015C108.751 17.7321 110.234 18.0979 111.736 18.0775C113.138 18.0765 114.525 17.7934 115.815 17.2447C123.068 14.1339 122.115 3.7868 122.115 3.35607L122.001 2.15002ZM115.072 15.4835C112.585 16.546 109.611 16.3641 107.943 15.0528C108.225 14.1062 108.612 13.1943 109.096 12.3344C109.473 11.7155 109.917 11.1408 110.421 10.6211C110.936 10.0957 111.516 9.63895 112.146 9.26186C113.449 8.47942 114.894 7.96531 116.397 7.74952V6.79234C114.668 6.73223 112.949 7.08659 111.384 7.82609C109.783 8.61055 108.425 9.81842 107.457 11.3198C107.098 11.8932 106.78 12.4913 106.504 13.1097C106.062 11.9748 105.937 10.7405 106.142 9.53944C106.276 8.6986 106.621 7.9059 107.145 7.23606C107.668 6.56621 108.353 6.04128 109.134 5.71073C110.274 5.17582 111.517 4.90122 112.775 4.9067C113.366 4.9067 113.947 4.96413 114.557 5.01199C116.468 5.25952 118.407 5.14589 120.276 4.67698C120.209 7.31879 119.732 13.4926 115.072 15.4835Z" fill="#0FA958"/>
</svg>
