<svg width="126" height="26" viewBox="0 0 126 26" fill="none" xmlns="http://www.w3.org/2000/svg">
<path d="M18.3333 4.84167L18.2333 3.79167L17.2333 4.125C15.5195 4.72045 13.6894 4.90318 11.8917 4.65833C10.0026 4.36518 8.0691 4.62568 6.325 5.40833C5.4004 5.80204 4.58896 6.42076 3.96456 7.20818C3.34017 7.99559 2.92264 8.92667 2.75 9.91667C2.52615 11.1956 2.63814 12.5107 3.075 13.7333C3.3563 13.0984 3.685 12.4856 4.05834 11.9C4.90517 10.654 6.07857 9.66515 7.45 9.04167C8.7712 8.43844 10.2153 8.15304 11.6667 8.20833C10.285 8.41958 8.9625 8.91624 7.78334 9.66667C7.21456 10.024 6.69369 10.4525 6.23334 10.9417C5.79305 11.4306 5.40485 11.964 5.075 12.5333C4.45544 13.7233 4.0146 14.9981 3.76667 16.3167C3.49943 17.6394 3.35437 18.984 3.33334 20.3333H5C5.07833 19.1232 5.24264 17.9202 5.49167 16.7333C6.64786 17.3577 7.94446 17.6761 9.25833 17.6583C10.4837 17.6575 11.6965 17.411 12.825 16.9333C19.1667 14.225 18.3333 5.21667 18.3333 4.84167Z" fill="#0FA958"/>
<path d="M43.3333 4.84167L43.2333 3.79167L42.2333 4.125C40.5195 4.72045 38.6894 4.90318 36.8917 4.65833C35.0026 4.36518 33.0691 4.62568 31.325 5.40833C30.4004 5.80204 29.589 6.42076 28.9646 7.20818C28.3402 7.99559 27.9226 8.92667 27.75 9.91667C27.5262 11.1956 27.6381 12.5107 28.075 13.7333C28.3563 13.0984 28.685 12.4856 29.0583 11.9C29.9052 10.654 31.0786 9.66515 32.45 9.04167C33.7712 8.43844 35.2153 8.15304 36.6667 8.20833C35.285 8.41958 33.9625 8.91624 32.7833 9.66667C32.2146 10.024 31.6937 10.4525 31.2333 10.9417C30.7931 11.4306 30.4049 11.964 30.075 12.5333C29.4554 13.7233 29.0146 14.9981 28.7667 16.3167C28.4994 17.6394 28.3544 18.984 28.3333 20.3333H30C30.0783 19.1232 30.2426 17.9202 30.4917 16.7333C31.6479 17.3577 32.9445 17.6761 34.2583 17.6583C35.4837 17.6575 36.6965 17.411 37.825 16.9333C44.1667 14.225 43.3333 5.21667 43.3333 4.84167Z" fill="#0FA958"/>
<path d="M68.3333 4.84167L68.2333 3.79167L67.2333 4.125C65.5195 4.72045 63.6894 4.90318 61.8917 4.65833C60.0026 4.36518 58.0691 4.62568 56.325 5.40833C55.4004 5.80204 54.589 6.42076 53.9646 7.20818C53.3402 7.99559 52.9226 8.92667 52.75 9.91667C52.5261 11.1956 52.6381 12.5107 53.075 13.7333C53.3563 13.0984 53.685 12.4856 54.0583 11.9C54.9052 10.654 56.0786 9.66515 57.45 9.04167C58.7712 8.43844 60.2153 8.15304 61.6667 8.20833C60.285 8.41958 58.9625 8.91624 57.7833 9.66667C57.2146 10.024 56.6937 10.4525 56.2333 10.9417C55.7931 11.4306 55.4049 11.964 55.075 12.5333C54.4554 13.7233 54.0146 14.9981 53.7667 16.3167C53.4994 17.6394 53.3544 18.984 53.3333 20.3333H55C55.0783 19.1232 55.2426 17.9202 55.4917 16.7333C56.6479 17.3577 57.9445 17.6761 59.2583 17.6583C60.4837 17.6575 61.6965 17.411 62.825 16.9333C69.1667 14.225 68.3333 5.21667 68.3333 4.84167Z" fill="#0FA958"/>
<path d="M95.0006 4.15002L93.857 4.5329C91.8969 5.21684 89.8039 5.42673 87.7479 5.14549C85.5875 4.80877 83.3762 5.10798 81.3816 6.00695C80.3242 6.45917 79.3962 7.16984 78.6821 8.07427C77.968 8.97871 77.4905 10.0482 77.293 11.1853C77.0922 12.2788 77.1127 13.4018 77.3534 14.4872C77.5941 15.5725 78.05 16.5981 78.694 17.5027C78.6368 17.7037 78.5796 17.9047 78.532 18.1057C78.1449 19.7588 77.953 21.4519 77.9601 23.15H79.8662C79.9558 21.76 80.1437 20.3782 80.4285 19.015C81.7508 19.7321 83.2337 20.0979 84.7363 20.0775C86.1377 20.0765 87.5247 19.7934 88.8153 19.2447C96.068 16.1339 95.115 5.7868 95.115 5.35607L95.0006 4.15002ZM88.072 17.4835C85.5845 18.546 82.611 18.3641 80.9432 17.0528C81.2251 16.1062 81.6119 15.1943 82.0964 14.3344C82.473 13.7155 82.9173 13.1408 83.4211 12.6211C83.9358 12.0957 84.5156 11.6389 85.1461 11.2619C86.449 10.4794 87.8939 9.96531 89.3967 9.74952V8.79234C87.6677 8.73223 85.9492 9.08659 84.3837 9.82609C82.783 10.6105 81.4254 11.8184 80.4571 13.3198C80.098 13.8932 79.7795 14.4913 79.5041 15.1097C79.0624 13.9748 78.9372 12.7405 79.1419 11.5394C79.2761 10.6986 79.6212 9.9059 80.1448 9.23606C80.6683 8.56621 81.3531 8.04128 82.1345 7.71073C83.274 7.17582 84.5173 6.90122 85.7751 6.9067C86.366 6.9067 86.9474 6.96413 87.5573 7.01199C89.4675 7.25952 91.407 7.14589 93.2756 6.67698C93.2089 9.31879 92.7324 15.4926 88.072 17.4835Z" fill="#0FA958"/>
<path d="M123.001 2.15002L121.857 2.5329C119.897 3.21684 117.804 3.42673 115.748 3.14549C113.588 2.80877 111.376 3.10798 109.382 4.00695C108.324 4.45917 107.396 5.16984 106.682 6.07427C105.968 6.97871 105.49 8.04817 105.293 9.18529C105.092 10.2788 105.113 11.4018 105.353 12.4872C105.594 13.5725 106.05 14.5981 106.694 15.5027C106.637 15.7037 106.58 15.9047 106.532 16.1057C106.145 17.7588 105.953 19.4519 105.96 21.15H107.866C107.956 19.76 108.144 18.3782 108.429 17.015C109.751 17.7321 111.234 18.0979 112.736 18.0775C114.138 18.0765 115.525 17.7934 116.815 17.2447C124.068 14.1339 123.115 3.7868 123.115 3.35607L123.001 2.15002ZM116.072 15.4835C113.585 16.546 110.611 16.3641 108.943 15.0528C109.225 14.1062 109.612 13.1943 110.096 12.3344C110.473 11.7155 110.917 11.1408 111.421 10.6211C111.936 10.0957 112.516 9.63895 113.146 9.26186C114.449 8.47942 115.894 7.96531 117.397 7.74952V6.79234C115.668 6.73223 113.949 7.08659 112.384 7.82609C110.783 8.61055 109.425 9.81842 108.457 11.3198C108.098 11.8932 107.78 12.4913 107.504 13.1097C107.062 11.9748 106.937 10.7405 107.142 9.53944C107.276 8.6986 107.621 7.9059 108.145 7.23606C108.668 6.56621 109.353 6.04128 110.134 5.71073C111.274 5.17582 112.517 4.90122 113.775 4.9067C114.366 4.9067 114.947 4.96413 115.557 5.01199C117.468 5.25952 119.407 5.14589 121.276 4.67698C121.209 7.31879 120.732 13.4926 116.072 15.4835Z" fill="#0FA958"/>
<path d="M123.001 2.15002L121.857 2.5329C119.897 3.21684 117.804 3.42673 115.748 3.14549C113.588 2.80877 111.376 3.10798 109.382 4.00695C108.324 4.45917 107.396 5.16984 106.682 6.07427C105.968 6.97871 105.49 8.04817 105.293 9.18529C105.092 10.2788 105.113 11.4018 105.353 12.4872C105.594 13.5725 106.05 14.5981 106.694 15.5027C106.637 15.7037 106.58 15.9047 106.532 16.1057C106.145 17.7588 105.953 19.4519 105.96 21.15H107.866C107.956 19.76 108.144 18.3782 108.429 17.015C109.751 17.7321 111.234 18.0979 112.736 18.0775C114.138 18.0765 115.525 17.7934 116.815 17.2447C124.068 14.1339 123.115 3.7868 123.115 3.35607L123.001 2.15002ZM116.072 15.4835C113.585 16.546 110.611 16.3641 108.943 15.0528C109.225 14.1062 109.612 13.1943 110.096 12.3344C110.473 11.7155 110.917 11.1408 111.421 10.6211C111.936 10.0957 112.516 9.63895 113.146 9.26186C114.449 8.47942 115.894 7.96531 117.397 7.74952V6.79234C115.668 6.73223 113.949 7.08659 112.384 7.82609C110.783 8.61055 109.425 9.81842 108.457 11.3198C108.098 11.8932 107.78 12.4913 107.504 13.1097C107.062 11.9748 106.937 10.7405 107.142 9.53944C107.276 8.6986 107.621 7.9059 108.145 7.23606C108.668 6.56621 109.353 6.04128 110.134 5.71073C111.274 5.17582 112.517 4.90122 113.775 4.9067C114.366 4.9067 114.947 4.96413 115.557 5.01199C117.468 5.25952 119.407 5.14589 121.276 4.67698C121.209 7.31879 120.732 13.4926 116.072 15.4835Z" fill="#0FA958"/>
<path d="M80.2572 11.5053C80.1708 12.3693 79.312 13.4329 79.7402 14.3428C80.1011 15.1097 79.6348 13.3447 79.6015 13.1447C79.5494 12.8327 79.5762 12.5024 79.5762 12.1863" stroke="#0FA958" stroke-width="3" stroke-linecap="round"/>
<path d="M79.0088 14.2293C79.7484 15.8729 80.9187 17.1191 82.6975 17.5144C83.5516 17.7042 84.4852 17.6342 85.3647 17.6342C86.4065 17.6342 87.0317 17.3495 87.9121 16.7893C88.4549 16.4439 89.4202 16.1566 89.7029 15.5912C89.9682 15.0605 90.5846 14.9103 89.5894 14.9103C88.5985 14.9103 87.6077 14.8302 86.6384 14.7968C85.3002 14.7506 83.9551 14.7968 82.6155 14.7968C82.2672 14.7968 81.6223 14.9495 81.4805 14.595C81.3508 14.2707 81.0272 13.852 80.8248 13.5483" stroke="#0FA958" stroke-width="3" stroke-linecap="round"/>
<path d="M79.2358 11.2783C79.7725 11.2783 80.4295 11.3803 80.9383 11.5621C81.6524 11.8171 82.4349 11.7814 83.1578 12.0224C84.465 12.4581 86.0261 12.4133 87.4077 12.4133C88.7865 12.4133 90.1997 12.3896 91.5441 12.634C92.0787 12.7312 91.3762 13.3094 91.1532 13.5735C90.8422 13.9417 90.3879 14.3485 89.993 14.6328C88.6636 15.59 87.1803 16.2298 85.5917 16.7262" stroke="#0FA958" stroke-width="3" stroke-linecap="round"/>
</svg>
