<svg width="27" height="10" viewBox="0 0 27 10" fill="none" xmlns="http://www.w3.org/2000/svg">
<g clip-path="url(#clip0_603_1216)">
<path d="M13.9637 3.18409C13.9483 4.57156 15.0462 5.34577 15.8732 5.80614C16.7228 6.27842 17.0082 6.58132 17.0048 7.00373C16.9985 7.65011 16.3271 7.93541 15.6988 7.9465C14.6027 7.96589 13.9653 7.60843 13.4587 7.33806L13.0638 9.44879C13.5721 9.71638 14.5134 9.94975 15.4896 9.95999C17.7809 9.95999 19.2799 8.66794 19.288 6.66469C19.297 4.12228 16.2096 3.98156 16.2307 2.84517C16.238 2.50059 16.5258 2.13288 17.1565 2.03939C17.4687 1.99216 18.3305 1.95601 19.3075 2.46999L19.691 0.427822C19.1656 0.209269 18.4903 -9.53674e-06 17.6495 -9.53674e-06C15.4928 -9.53674e-06 13.976 1.30963 13.9637 3.18409ZM23.3759 0.175894C22.9575 0.175894 22.6049 0.454689 22.4475 0.882521L19.1745 9.80999H21.4642L21.9198 8.37156H24.7177L24.982 9.80999H27L25.239 0.175894H23.3759ZM23.6962 2.77842L24.357 6.39614H22.5473L23.6962 2.77842ZM11.1877 0.176015L9.38292 9.80987H11.5648L13.3687 0.175774H11.1877M7.96004 0.175774L5.68909 6.73324L4.77046 1.1577C4.66267 0.535292 4.237 0.175894 3.76429 0.175894H0.0519961L0 0.455653C0.762117 0.644568 1.62802 0.949267 2.15262 1.27529C2.47366 1.47445 2.56521 1.64855 2.67068 2.1218L4.4106 9.80999H6.71625L10.2511 0.175894L7.96004 0.175774Z" fill="url(#paint0_linear_603_1216)"/>
</g>
<defs>
<linearGradient id="paint0_linear_603_1216" x1="1241.3" y1="29.9398" x2="1274.22" y2="-992.719" gradientUnits="userSpaceOnUse">
<stop stop-color="#222357"/>
<stop offset="1" stop-color="#254AA5"/>
</linearGradient>
<clipPath id="clip0_603_1216">
<rect width="27" height="10" fill="white"/>
</clipPath>
</defs>
</svg>
