<svg width="18" height="24" viewBox="0 0 18 24" fill="none" xmlns="http://www.w3.org/2000/svg">
<path d="M15.4801 12C14.6411 11.2967 13.5745 10.9234 12.4801 10.95H5.44509C5.12433 10.9581 4.80524 10.9014 4.50691 10.7833C4.20858 10.6652 3.93716 10.4881 3.70888 10.2626C3.4806 10.0371 3.30017 9.76789 3.17838 9.47104C3.05659 9.1742 2.99595 8.85583 3.00008 8.535C2.99226 8.41012 2.99226 8.28487 3.00008 8.16C3.09467 7.5867 3.39528 7.06766 3.84547 6.70032C4.29567 6.33299 4.86447 6.14263 5.44509 6.165H12.3751C12.9404 6.1645 13.4875 6.36481 13.9188 6.7302C14.3501 7.09559 14.6376 7.60231 14.7301 8.16H16.9801C16.8859 7.0034 16.3599 5.9246 15.5067 5.13808C14.6535 4.35157 13.5355 3.91494 12.3751 3.915H10.0051V0.464996H8.13008V3.915H5.44509C4.28466 3.91494 3.1667 4.35157 2.31349 5.13808C1.46027 5.9246 0.934275 7.0034 0.840085 8.16C0.832602 8.28488 0.832602 8.41011 0.840085 8.535C0.840085 9.13973 0.959196 9.73855 1.19062 10.2973C1.42204 10.856 1.76124 11.3636 2.18886 11.7912C3.05246 12.6548 4.22376 13.14 5.44509 13.14H12.5551C12.8733 13.132 13.1899 13.1878 13.4862 13.304C13.7825 13.4203 14.0526 13.5947 14.2805 13.817C14.5083 14.0392 14.6894 14.3049 14.813 14.5982C14.9366 14.8916 15.0002 15.2067 15.0001 15.525C15.0157 15.6946 15.0157 15.8654 15.0001 16.035C14.881 16.5628 14.586 17.0344 14.1635 17.3724C13.741 17.7104 13.2161 17.8947 12.6751 17.895H5.62508C5.08403 17.8947 4.55918 17.7104 4.13669 17.3724C3.7142 17.0344 3.41918 16.5628 3.30008 16.035H1.03508C1.16399 17.162 1.70304 18.2022 2.54951 18.9574C3.39598 19.7126 4.49071 20.13 5.62508 20.13H8.13008V23.535H10.0051V20.13H12.5551C13.6895 20.13 14.7842 19.7126 15.6307 18.9574C16.4771 18.2022 17.0162 17.162 17.1451 16.035V15.525C17.1433 14.8512 16.9932 14.1862 16.7054 13.5769C16.4177 12.9677 15.9993 12.4293 15.4801 12Z" fill="#545F71"/>
</svg>
