<svg width="20" height="19" viewBox="0 0 20 19" fill="none" xmlns="http://www.w3.org/2000/svg">
<path d="M9.98677 0C8.7294 0 7.61064 0.8 7.19481 2H1.07628V4H3.00688L0.0862239 11C-0.379102 13 1.07628 14 3.55141 14C6.02655 14 7.57103 13 7.0166 11L4.09594 4H7.18491C7.51163 4.85 8.15517 5.5 8.99671 5.83V17H0.0862239V19H19.8873V17H10.9768V5.82C11.8184 5.5 12.4619 4.85 12.7787 4H15.8776L12.9569 11C12.4916 13 13.947 14 16.4221 14C18.8973 14 20.4417 13 19.8873 11L16.9666 4H18.8973V2H12.7886C12.3629 0.8 11.2441 0 9.98677 0ZM9.98677 2C10.2493 2 10.5012 2.10536 10.6868 2.29289C10.8725 2.48043 10.9768 2.73478 10.9768 3C10.9768 3.26522 10.8725 3.51957 10.6868 3.70711C10.5012 3.89464 10.2493 4 9.98677 4C9.72419 4 9.47236 3.89464 9.28669 3.70711C9.10102 3.51957 8.99671 3.26522 8.99671 3C8.99671 2.73478 9.10102 2.48043 9.28669 2.29289C9.47236 2.10536 9.72419 2 9.98677 2ZM3.55141 7.25L5.03649 11H2.06633L3.55141 7.25ZM16.4221 7.25L17.9072 11H14.937L16.4221 7.25Z" fill="#545F71"/>
</svg>
